<?xml version="1.0" encoding="utf-8"?>
<!-- Generator: Adobe Illustrator 25.4.1, SVG Export Plug-In . SVG Version: 6.00 Build 0)  -->
<svg version="1.1" id="Capa_1" xmlns="http://www.w3.org/2000/svg" xmlns:xlink="http://www.w3.org/1999/xlink" x="0px" y="0px"
	 viewBox="0 0 54 54" style="enable-background:new 0 0 54 54;" xml:space="preserve">
<style type="text/css">
	.st0{fill:#177D00;}
</style>
<g>
	<path class="st0" d="M26.9,52.5C13,52.6,1,41.4,1.1,26.7C1.2,12.4,12.8,0.8,27.5,1.1c13.9,0.3,25.3,11.4,25.2,26
		C52.5,41.5,40.8,52.6,26.9,52.5z M30.7,28.5c-0.3,0-0.6-0.1-0.9-0.1c-7.4,0-14.7,0-22.1,0c-0.2,0-0.4,0-0.6,0
		c-0.1,0-0.2,0.2-0.3,0.2c0,0.1,0,0.1,0.1,0.2c0.2,0,0.5,0,0.7,0c3.1,0,6.2,0,9.4,0c4.3,0,8.6,0,12.9,0
		C30.3,28.7,30.5,28.6,30.7,28.5c0.2,0.1,0.4,0.3,0.7,0.4c0.1,0,0.5-0.1,0.5-0.2c0.2-0.6,0.6-0.8,1.1-1c0.2-0.1,0.4-0.3,0.6-0.5
		c0.4-0.6,0.2-1.1-0.5-1.2c-0.3-0.1-0.6-0.2-0.9-0.4c-0.4-0.2-0.9-0.1-1.1,0.3c-0.1,0.2-0.2,0.4-0.3,0.5c-0.3,0.5-0.4,1,0.2,1.3
		C31,28,30.8,28.2,30.7,28.5z M18.9,29.6c0.3,1.6,0.5,3.1,0.8,4.6c0,0.2,0.3,0.3,0.5,0.4c0.7,0,1.5,0,2.2,0c1.3,0,2.7,0,4,0
		c0-1.7,0-3.3,0-5C24,29.6,21.5,29.6,18.9,29.6z M19.9,35c0.5,2.1,1.4,4,2.4,5.9c0.1,0.1,0.2,0.3,0.4,0.3c1.3,0,2.5,0,3.8,0
		c0-2.1,0-4.1,0-6.2C24.3,35,22.2,35,19.9,35z M21.8,41.1c-0.8-2.1-1.5-4-2.3-6c0-0.1-0.2-0.2-0.4-0.2c-1.7,0-3.3,0-5,0
		c0,0.1,0,0.1,0,0.2c0.8,2.1,1.9,4,3.3,5.8c0.1,0.1,0.3,0.3,0.5,0.3C19.2,41.2,20.5,41.1,21.8,41.1z M19.6,18.8c-1.6,0-3.2,0-4.8,0
		c-0.6,0-0.9,0.1-1,0.7c0,0.2-0.2,0.3-0.2,0.5c-0.4,1.3-0.7,2.6-1.1,4.1c2.1,0,4,0,5.9,0c0.1,0,0.3-0.2,0.3-0.3
		C19,22.1,19.3,20.5,19.6,18.8z M40.9,24c-0.5-1.7-0.9-3.3-1.3-4.9c0-0.1-0.2-0.3-0.4-0.3c-1.7,0-3.4,0-5.1,0c0,0.2,0.1,0.4,0.1,0.6
		c0.2,1.2,0.5,2.3,0.6,3.5c0.1,0.8,0.2,1.1,1.1,1.2C37.4,24.1,39,24,40.9,24z M18.5,29.6c-2,0-3.9,0-6,0c0.4,1.6,0.8,3,1.3,4.5
		c0,0.2,0.3,0.4,0.5,0.4c1.7,0,3.3,0,5.1,0C19,32.8,18.8,31.2,18.5,29.6z M32.5,14.2c-0.1,0-0.1,0-0.2,0.1c0.5,1.3,1,2.7,1.5,4
		c0,0.1,0.2,0.2,0.3,0.2c1.6,0,3.3,0,5,0c0-0.2,0-0.3-0.1-0.4c-0.9-2-2-3.7-3.4-5.4c-0.1-0.1-0.3-0.2-0.4-0.2c-1,0-2,0-3,0
		c0,0.7,0.4,1,0.9,1.3c0.4,0.2,0.5,0.5,0.2,0.8c-0.1,0.1-0.4,0-0.7-0.1C32.6,14.3,32.6,14.3,32.5,14.2z M31.3,41.1
		c1.4,0,2.7,0,3.9,0c0.2,0,0.4-0.1,0.5-0.3c1.4-1.7,2.6-3.6,3.4-5.7c-1-0.1-1.9-0.4-2.7,0.5c-0.6,0.7-1.4,1.2-2.2,1.2
		c-0.5,0.4-0.9,0.8-1.3,1.1c-0.1,0.1-0.4,0.2-0.4,0.3C32,39.2,31.7,40.1,31.3,41.1z M14.2,18.4c1.9,0,3.6,0,5.3,0
		c0.1,0,0.4-0.2,0.4-0.4c0.1-0.7,0-1.3,0.2-2c0.2-1.1,0.1-2-0.4-3c-0.4-0.7-1-0.9-1.5-0.3c-0.8,1-1.6,1.9-2.3,3
		C15.2,16.5,14.8,17.4,14.2,18.4z M43.7,35.1c-1.3,0-2.5,0-3.6,0c-0.2,0-0.5,0.2-0.6,0.4c-1,1.7-2,3.3-3,5c-0.1,0.2-0.2,0.3-0.3,0.6
		c0.6,0,1-0.1,1.4,0c1.5,0.3,2.6-0.3,3.5-1.6C42,38.2,42.9,36.8,43.7,35.1z M17.8,12.4c-1.2,0-2.2,0-3.2,0c-0.3,0-0.7,0.2-1,0.4
		c-0.3,0.2-0.4,0.5-0.6,0.7c-1.1,1.4-2.2,2.9-3,4.8c1.3,0,2.4,0,3.6,0c0.2,0,0.4-0.2,0.5-0.4c0.8-1.2,1.5-2.4,2.3-3.6
		C16.7,13.7,17.2,13.1,17.8,12.4z M16.9,41.1c0-0.2,0-0.3-0.1-0.3c-1.3-1.8-2.3-3.7-3.2-5.7c0-0.1-0.2-0.3-0.3-0.3
		c-1.2,0-2.5,0-3.8,0c1,2.3,2.4,4.3,4.1,6c0.1,0.1,0.4,0.2,0.5,0.2C15.2,41.2,16,41.1,16.9,41.1z M43.5,18.5c0-0.2-0.1-0.3-0.1-0.5
		c-1-2-2.3-3.8-3.8-5.4c-0.1-0.1-0.2-0.2-0.3-0.2c-1.1,0-2.1,0-3.2,0c0.1,0.2,0.1,0.3,0.1,0.3c1.4,1.7,2.5,3.4,3.4,5.4
		c0.1,0.1,0.3,0.3,0.4,0.3C41.2,18.5,42.3,18.5,43.5,18.5z M27,29.5c0,1.6,0,3.2,0,4.7c0,0.1,0.2,0.4,0.3,0.4c1.2,0,2.3,0.1,3.5,0
		c0.4,0,1.2-2.3,1-2.6c-0.4-0.7-0.8-1.3-1.2-2c-0.1-0.2-0.3-0.5-0.5-0.5C29.1,29.5,28,29.5,27,29.5z M27.1,19.8c0,0.8,0,1.4,0,2
		c1.6-0.8,1.6-0.8,1.7,0.6c1,0.2,1,0.2,1.4,1.1c0.2,0.5,0.7,0.7,1.2,0.3c0.2-0.1,0.3-0.3,0.5-0.5c0.4-0.3,0.7-0.5,1.2-0.2
		c0.4,0.2,0.9,0.3,1.4,0.5c0-1.7-0.3-3.2-0.7-4.6c0-0.1-0.2-0.3-0.3-0.3c-0.9,0-1.9,0-2.9,0c0,0.4,0.1,0.6,0.1,0.9
		c-0.1,0.3-0.2,0.6-0.4,0.8c-0.3-0.1-0.6-0.3-0.9-0.4c-0.3-0.1-0.5-0.4-0.8-0.4C28,19.6,27.5,19.7,27.1,19.8z M39.9,34.7
		c0.9,0,1.9,0,2.8,0c1.3,0,1,0.2,1.5-1.1c0.5-1.3,0.9-2.7,0.9-4.2c-1.3,0-2.4,0-3.6,0c-0.1,0-0.4,0.3-0.4,0.4
		C40.7,31.5,40.4,33,39.9,34.7z M26.5,23.3c-0.3-0.1-0.6-0.2-0.8-0.3c-0.9-0.2-1.6-0.6-1.9-1.5c-0.1-0.3-0.4-0.5-0.7-0.7
		c-0.3-0.2-0.7-0.3-1-0.6c-0.4-0.3-0.7-0.8-1-1.1c-0.2-0.2-0.5-0.3-0.7-0.2c-0.1,0-0.3,0.3-0.4,0.5c-0.1,0.3-0.2,0.6-0.2,0.9
		c-0.2,1.2-0.4,2.5-0.7,3.8c2.6,0,5,0,7.5,0C26.5,23.8,26.5,23.6,26.5,23.3z M8,23.9C8.2,24,8.3,24,8.3,24c0.7,0,1.5,0,2.2,0
		c0.5,0,1.2,0.2,1.5-0.1c0.3-0.3,0.3-1,0.4-1.5c0-0.1,0-0.1,0.1-0.2c0.3-1.2,0.7-2.3,1-3.5c-1.1,0-2.1,0-3.2,0
		c-0.4,0-0.7,0.1-0.8,0.5C9,20.8,8.5,22.4,8,23.9z M40,18.9c0.4,1.7,0.8,3.4,1.2,5.1c1.3,0,2.6,0,4,0c-0.2-1.7-0.6-3.4-1.3-4.9
		c-0.1-0.1-0.3-0.2-0.5-0.2C42.3,18.9,41.2,18.9,40,18.9z M13.3,34.4c-0.3-1.5-0.7-3.1-1-4.6c0-0.1-0.2-0.3-0.4-0.3
		c-1.3,0-2.5,0-3.7,0c-0.1,0.1-0.1,0.2-0.1,0.2c0.4,1.5,0.8,3,1.2,4.5c0,0.1,0.2,0.2,0.4,0.2C10.9,34.4,12.1,34.4,13.3,34.4z M27,35
		c0,2.1,0,4,0,6c0.7,0,1.3,0,2.1,0c-0.7-0.8-0.5-1.5-0.1-2.2c0.2-0.3,0.3-0.7,0.5-1c0.3-0.7,0.6-1.4,0.9-2.1
		c0.1-0.2,0.2-0.4,0.4-0.7C29.4,35,28.2,35,27,35z M28,45.6c1.3,0.2,2.2,0.1,3-0.6c1.2-1,2.3-1.9,3.5-2.8c0.1-0.1,0.2-0.3,0.5-0.6
		c-1.2,0-2.2,0-3.3,0c-1,0-1.7,1.1-1.3,2C29.2,43.6,29,44.9,28,45.6z M38.8,41.6c-1,0-2,0-3,0c-0.2,0-0.3,0.2-0.5,0.3
		c-0.8,0.7-1.6,1.5-2.4,2.2c-0.6,0.5-1.2,0.9-1.9,1.4c1.1,0.2,2,0.1,2.8-0.4C35.7,44.2,37.4,43.2,38.8,41.6z M31.5,7.9
		c0,0.1-0.1,0.1-0.1,0.2c0.1,0.2,0.2,0.3,0.4,0.5c1.2,1.1,2.4,2.2,3.7,3.3c0.1,0.1,0.2,0.2,0.3,0.2c1,0,2,0,3,0
		c-1.6-1.7-3.5-3-5.7-3.9c-0.2,0.7-0.5,0.7-0.9,0.2C32,8.1,31.8,8,31.5,7.9z M6.9,25c0,0.1,0,0.2-0.1,0.3c0.3,0,0.6,0.1,0.8,0.1
		c7.5,0,15.1,0,22.6,0c0.2,0,0.4,0,0.6,0c0.1,0,0.2-0.2,0.3-0.4C23,25,14.9,25,6.9,25z M18.2,41.6c0,0.1-0.1,0.1-0.1,0.2
		c0.7,0.7,1.3,1.5,2.1,2.1c0.2,0.2,0.6,0.1,1,0.1c0.3,0,0.7-0.1,1,0c0.4,0.1,0.7,0.2,1,0.4c0.5-1.1-0.3-1.8-0.8-2.6
		c-0.1-0.1-0.2-0.1-0.4-0.1C20.7,41.6,19.5,41.6,18.2,41.6z M48.5,20.2c0.5-0.3,0.9-0.6,1.2-0.8c0.8-0.5,0.8-0.6,0.3-1.5
		c-1,0.3-2.1,0.6-3.1,0.9c0.1,0.3,0.2,0.4,0.3,0.7c0.7-0.2,1.3-0.4,1.9-0.5c-0.4,0.4-0.8,0.6-1.2,0.9c-0.2,0.2-0.4,0.4-0.4,0.6
		c0,0.5,0.4,0.4,0.8,0.4c0.5,0,1,0,1.7,0c-0.8,0.3-1.5,0.5-2.1,0.7c0,0.1-0.1,0.1-0.1,0.2c0.2,0.1,0.4,0.4,0.6,0.3
		c1-0.2,1.9-0.6,2.8-0.8c-0.3-1.3-0.2-1.1-1.2-1.1C49.4,20.2,49.1,20.2,48.5,20.2z M40.2,12.4c0,0.1,0,0.1,0,0.2
		c0.1,0.1,0.2,0.2,0.3,0.4c1.1,1.5,2.2,3,3.2,4.6c0.6,0.9,0.5,1,1.7,0.8c0,0,0-0.1,0-0.1c-0.1-0.1-0.1-0.3-0.2-0.4
		c-1-1.6-2.1-3.1-3.1-4.7C41.6,12.3,40.9,12.3,40.2,12.4z M14.8,41.6c0,0.1-0.1,0.1-0.1,0.2c1.5,1.3,2.9,2.6,4.8,3.4
		c0.2-0.3,0.3-0.6,0.4-0.8c-0.8-0.9-1.5-1.7-2.3-2.5c-0.1-0.1-0.3-0.3-0.5-0.3C16.3,41.6,15.5,41.6,14.8,41.6z M44.4,19
		c0.4,1.7,0.8,3.3,1.3,5c0.4,0,0.8,0,1.4,0c-0.4-1.4-0.7-2.8-1.1-4.1C45.7,18.8,45.6,18.7,44.4,19z M26.6,41.6c-1.3,0-2.5,0-3.7,0
		c0.4,0.9,1.1,1.8,1.8,2.2c0.8,0.5,1.8,0.2,1.9-0.6C26.6,42.7,26.6,42.2,26.6,41.6z M46.1,38.9c0,0.6,0.1,1,0.7,1.2
		c0.7,0.2,1-0.3,1.3-0.8c0.2-0.3,0.4-0.7,0.6-1c0.2-0.3,0.2-0.5-0.2-0.7c-0.8-0.5-1.6-1-2.5-1.5c-0.1,0.2-0.2,0.4-0.4,0.7
		c0.4,0.3,0.8,0.5,1.1,0.7c-0.3,0.7-1,0.6-1.5,0.6c-0.5,0.1-0.7,0.3-0.9,0.8C45,39,45.5,38.9,46.1,38.9z M36.3,45.8
		c0.6,0.8,1.1,1.5,1.6,2.2c0.3,0.5,0.6,0.4,0.9,0c-0.2-0.4-0.5-0.7-0.7-1c0.5-0.6,1-0.2,1.5-0.1c0.5,0.2,0.9,0.2,1.2-0.4
		c-0.5-0.2-1-0.3-1.6-0.5c0.3-0.5,0.3-1.1-0.2-1.4c-0.6-0.4-1,0-1.5,0.3C37.2,45.1,36.7,45.4,36.3,45.8z M26.8,4.4
		c-0.2,0.5-0.8,0.7-1.4,0.5c-0.5-0.3-0.8-1.2-0.5-1.7c0.3-0.5,0.9-0.6,1.4-0.4C26.7,3,27,3,27.4,3.2c-0.4-1-1-1.2-2-1
		c-1,0.2-1.6,1-1.4,2c0.2,1.1,1.2,1.7,2.4,1.4c1-0.2,1.3-0.7,0.9-2c-0.5,0.1-1,0.1-1.5,0.2c0,0.1,0,0.2-0.1,0.3
		C26.1,4.1,26.4,4.3,26.8,4.4z M30.9,4.3c0,0,0.1,0,0.1-0.1c0.5-0.2,0.8-0.5,0.7-1c-0.1-0.5-0.4-0.8-0.9-0.8c-0.5-0.1-1-0.2-1.5-0.2
		c-0.2,0-0.5,0.2-0.5,0.3c-0.1,0.9-0.2,1.8-0.3,2.8c0,0.1,0,0.1,0.1,0.2c0.2,0,0.4,0,0.6,0c0.1-0.5,0.2-0.9,0.3-1.3
		c0.8,0,0.9,0.6,1.1,1.1c0.2,0.5,0.5,0.6,1.1,0.4C31.4,5.3,31.1,4.8,30.9,4.3z M5.8,39.2c1-0.5,1.8-0.9,2.6-1.3
		c0.1-0.1,0.2-0.3,0.3-0.5c-0.2,0-0.5-0.2-0.6-0.1c-0.5,0.2-0.9,0.4-1.3,0.6c0-1,1.4-1.6,0.7-2.9c-1,0.5-2,1-3,1.5
		c0.1,0.2,0.2,0.4,0.4,0.6c0.6-0.3,1.2-0.6,1.8-0.8C6.5,37.3,5.2,37.9,5.8,39.2z M15.2,6.9c-1.2,0.6-1.3,0.8-1,1.3
		C14.5,8.1,14.7,8,15,7.8c0,0.2,0.1,0.4,0,0.6c-0.2,0.5-0.9,0.8-1.3,0.7c-0.5-0.2-1-0.9-0.9-1.4C13,7.1,13.4,6.8,14,6.8
		c0.3,0,0.5-0.2,0.8-0.3c0-0.1,0-0.1,0-0.2c-0.2-0.1-0.4-0.2-0.6-0.2c-0.8-0.1-1.8,0.6-2,1.4c-0.2,0.8,0.2,1.7,0.9,2.1
		c0.8,0.4,1.7,0.1,2.5-0.7C16.1,8.1,16.1,8,15.2,6.9z M29.6,51.6c1-0.2,2.1,0,2.7-1.1c0.3-0.6,0.1-1.7-0.4-2.2
		c-0.5-0.5-1.8-0.5-2.8,0.1C29.1,49.4,29.3,50.4,29.6,51.6z M36.6,48.4c0-1-0.8-1.8-1.7-1.9c-1.1,0-2,0.8-2,1.7c0,1,0.8,1.8,1.7,1.9
		C35.7,50.2,36.6,49.4,36.6,48.4z M10.1,13.5c0-0.9-0.9-1.8-1.8-1.8c-0.9,0-1.8,1-1.8,2c0,0.9,0.8,1.7,1.8,1.7
		C9.2,15.4,10.1,14.5,10.1,13.5z M21.5,2.8c-1.1,0-1.9,0.7-1.9,1.6c0,1.1,0.7,1.9,1.7,1.9c1.1,0,1.9-0.7,1.9-1.7
		C23.3,3.5,22.6,2.8,21.5,2.8z M44.3,34.9c0.5-0.2,1-0.2,1.1-0.4c0.7-1.6,1.2-3.2,1.5-4.9c-1.2-0.2-1.2-0.2-1.4,0.8
		c-0.1,0.3-0.1,0.7-0.2,1C45,32.5,44.7,33.6,44.3,34.9z M45.3,14.7c0.9,0,1.8-0.9,1.8-1.7c0-0.9-1-1.9-1.9-1.9
		c-0.9,0-1.8,0.9-1.8,1.8C43.5,13.7,44.4,14.7,45.3,14.7z M41.8,26.5c-0.1,0-0.3-0.1-0.4-0.1c-0.3,0-0.7,0-0.8,0.2
		c-0.1,0.2-0.1,0.6,0,0.8c0.4,0.9,2.2,1.1,2.8,0.3c0.1-0.1,0.1-0.3,0.1-0.5c-0.2,0-0.3,0-0.5-0.1c0.2-0.6-0.1-1.1-0.6-1.4
		c-0.7-0.4-1.6-0.4-2.1,0.1c-0.2,0.2-0.2,0.4-0.4,0.6C41.4,26,41.4,26,41.8,26.5z M16.5,5.1c0.5-0.3,1-0.4,1.5-0.7
		c0.1-0.1,0.1-0.3,0.2-0.4c-0.1,0-0.3-0.1-0.4-0.1c-0.7,0.3-1.4,0.6-2.2,1C16.1,6,16.5,7,17,8c0.8-0.4,1.5-0.7,2.2-1
		c0.4-0.2,0.3-0.4,0.1-0.7c-0.6,0.3-1.2,0.5-1.8,0.8c-0.1-0.3-0.2-0.5-0.3-0.8c0.6-0.3,1.1-0.5,1.7-0.9c-0.9-0.7-1.4,0.3-2.1,0.2
		C16.7,5.5,16.6,5.4,16.5,5.1z M15.1,44c-0.7,0.9-1.3,1.8-2,2.7c0.8,0.6,1.5,1.1,2.2,1.7c0.3-0.5,0.3-0.5,0-0.7
		c-0.4-0.3-0.8-0.6-1.2-1c0.2-0.3,0.3-0.5,0.5-0.7c0.3,0.2,0.6,0.4,0.9,0.7c0.3,0.2,0.5,0.6,0.9,0c-0.5-0.4-0.9-0.7-1.4-1.1
		c0.1-0.2,0.3-0.3,0.4-0.5c0.5,0.3,0.9,0.7,1.3,0.9c0.1,0.1,0.3,0,0.4,0c0-0.1,0-0.4,0-0.4C16.5,45,15.8,44.5,15.1,44z M4,32.4
		c-0.7,0.5-0.8,1.5-0.1,2.2c0.2,0.2,0.7,0.4,1,0.3c0.2-0.1,0.5-0.5,0.6-0.8c0.1-0.3,0-0.7,0-1c0-0.2,0.2-0.4,0.3-0.6
		c0.2,0.2,0.4,0.3,0.5,0.5c0.1,0.2,0,0.5,0,0.8c0,0.3-0.1,0.6-0.1,1c1-0.7,1.1-1.1,0.8-2.1c-0.3-0.7-0.8-1.1-1.3-1
		c-0.6,0.1-0.9,0.6-0.9,1.4c0,0.4,0,0.7,0,1.2C3.4,33.8,4.7,32.9,4,32.4z M34.8,12c0-0.1,0.1-0.2,0.1-0.2c-1.1-1-2.2-2-3.3-2.9
		c-0.1,0.1-0.1,0.1-0.2,0.2c0.4,0.3,0.7,0.7,1.1,1c0.4,0.4,0.4,0.6-0.2,0.8c-0.6,0.2-1.1,0-1.6-0.4c-0.2-0.1-0.3-0.2-0.5-0.3
		c0.2,0.6,0.4,1.2,0.7,1.6c0.1,0.1,0.3,0.2,0.5,0.2C32.5,12,33.7,12,34.8,12z M40.2,41.1c1.2,0,4.5-4,4.9-5.9
		c-0.7-0.2-1,0.1-1.4,0.7c-0.7,1.3-1.6,2.6-2.4,3.8C41,40.2,40.6,40.6,40.2,41.1z M47.6,32.3c-0.3,0.4-0.4,0.6-0.1,0.9
		c0.4,0.4,0,1.6-0.6,1.6c-0.6,0-0.6,0.4-0.7,0.8c1.1-0.1,2.2-0.1,3.3-0.2c0.5,0,0.8-0.6,0.4-0.9C49.3,33.8,48.5,33.1,47.6,32.3z
		 M21.4,47.6c-0.2,0.9-0.4,1.7-0.4,2.5c-0.1,0.6,0.5,1,1.2,1.2c0.8,0.1,1.4,0,1.6-0.6c0.2-0.8,0.4-1.6,0.6-2.3
		c-0.5-0.3-0.8-0.3-0.9,0.3c-0.1,0.5-0.2,0.9-0.3,1.4c-0.1,0.5-0.3,0.7-0.8,0.6c-0.5-0.1-0.7-0.4-0.6-0.9c0.2-0.6,0.3-1.3,0.5-2
		C21.9,47.7,21.7,47.6,21.4,47.6z M31.9,5.9c0.6,0.3,0.6,0.3,0.9,0c0.4-0.4,1.6-0.1,1.7,0.5C34.7,6.9,34.9,7,35.4,7
		c-0.1-1.1-0.2-2.3-0.3-3.4c0-0.3-0.7-0.6-0.9-0.3C33.4,4.2,32.7,5,31.9,5.9z M24.8,51.5c0.1,0.1,0.1,0.2,0.2,0.2
		c0.2-0.2,0.5-0.3,0.7-0.6c0.3-0.4,1.5-0.4,1.7,0c0.2,0.5,0.5,0.5,1,0.3c-0.4-1-0.8-2-1.3-3c-0.1-0.2-0.3-0.3-0.5-0.3
		c-0.2,0-0.4,0.1-0.5,0.3C25.6,49.6,25.2,50.6,24.8,51.5z M40.8,12c-0.1-0.2-0.1-0.3-0.2-0.3C38.9,10.1,37.1,8.9,35,8
		c-0.3-0.1-0.6-0.1-0.9-0.1c0.2,0.3,0.4,0.4,0.6,0.5c1.4,1,2.9,2,4.3,3.1C39.6,12,40.1,12,40.8,12z M3.3,20.9C3.2,21,3.1,21,3,21
		c0.1,0.2,0.1,0.6,0.2,0.6c0.7,0.2,1.4,0.4,2.1,0.5c0.7,0.1,1.1-0.4,1.3-1.3c0.2-0.8,0-1.3-0.7-1.5c-0.6-0.2-1.2-0.3-1.7-0.5
		c-0.6-0.2-0.7,0.1-0.7,0.6c0.6,0.2,1.3,0.4,1.9,0.5c0.5,0.1,0.7,0.4,0.6,0.9c-0.1,0.5-0.4,0.7-0.9,0.5C4.5,21.2,3.9,21.1,3.3,20.9z
		 M8.6,18.2c0.6,0.2,0.9,0.1,1.1-0.4c1-1.6,2-3.1,3-4.6c0.2-0.3,0.4-0.5,0.5-0.7c-0.1-0.1-0.1-0.1-0.2-0.2c-0.3,0.2-0.7,0.3-0.9,0.5
		c-0.9,1.2-1.8,2.4-2.7,3.6C9.2,17,9,17.6,8.6,18.2z M20.2,48.3c0.2-1-0.3-1.6-1.1-1.8c-0.9-0.2-1.7,0.3-2,1.2
		c-0.3,0.9,0,1.7,0.9,2.1c0.8,0.4,1.3,0.3,1.9-0.6c-0.4,0-0.7-0.1-0.9,0c-0.5,0.2-1,0.1-1.1-0.4c-0.1-0.4,0.1-0.9,0.3-1.2
		c0.1-0.2,0.5-0.5,0.8-0.5c0.3,0,0.5,0.3,0.8,0.6C19.8,47.8,20,48.1,20.2,48.3z M43.8,10.2c0.5-0.9,0.2-1.6-0.6-2
		C42.4,7.7,41.6,8,41,8.8c-0.5,0.7-0.4,1.5,0.2,2.1c0.6,0.6,1.3,0.7,2.1,0.1c-0.4-0.1-0.6-0.3-0.9-0.3c-0.5,0-0.9-0.1-1-0.7
		c-0.1-0.6,0.5-1.3,1.1-1.4c0.5-0.1,0.9,0.2,1,0.8C43.5,9.7,43.7,9.9,43.8,10.2z M27.7,26.5c-0.2,0-0.4,0-0.6,0
		c-0.2,0.1-0.4,0.2-0.6,0.3c-0.1,0,0,0.4,0.1,0.4c0.2,0,0.5,0,0.7,0c0.3,0,0.7-0.1,0.9-0.1c0.1,0.4,0,0.8,0.2,1c0.4,0.3,0.7,0,1-0.3
		c0.1-0.1,0.2-0.3,0.3-0.3c0.7,0,0.7-0.5,0.9-1.1c-0.4,0-0.7,0.1-1,0c-0.3-0.1-0.5-0.4-0.8-0.5c-0.3-0.1-0.7-0.1-1,0
		C27.7,25.8,27.7,26.2,27.7,26.5z M33.4,18.4c-0.3-0.8-0.6-1.5-0.8-2.2c-0.1-0.3-0.2-0.8-0.7-0.6c-0.3,0.1-0.6,0.5-0.7,0.8
		c-0.2,0.6-0.2,1.3-0.3,2C31.7,18.4,32.5,18.4,33.4,18.4z M37.9,5.3c0.5,0.2,0.8,0.5,1.2,0.6c0.1,0.1,0.3,0,0.5-0.1
		c-0.1-0.1-0.1-0.4-0.2-0.4c-0.6-0.4-1.3-0.7-1.9-1c-0.5,1-1,2-1.6,3c0.2,0.1,0.4,0.2,0.7,0.4c0.3-0.4,0.5-0.8,0.7-1.2
		c0.4,0.2,0.6,0.4,0.9,0.5c0.2,0.1,0.3,0,0.5,0c-0.1-0.2-0.1-0.4-0.3-0.5c-0.3-0.2-0.6-0.3-0.9-0.5C37.6,5.7,37.7,5.5,37.9,5.3z
		 M22.8,25.5c-0.2,0-0.3,0-0.4,0c-0.9,0.4-1.7,0.4-2.6,0.1c-0.1,0-0.3,0.1-0.5,0.1c0.1,0.2,0.1,0.5,0.2,0.5c0.6,0.3,0.8,0.8,1,1.3
		c0.1,0.2,0.4,0.5,0.6,0.5c0.2,0,0.5-0.2,0.7-0.5c0.3-0.5,0.3-1.2,0.9-1.6C22.8,26,22.8,25.7,22.8,25.5z M47.2,25.1
		c-3.4,0-6.9,0-10.4,0C37.2,25.5,46.4,25.6,47.2,25.1z M27,41.6c0,0.6,0,1.2,0,1.7c0.7-0.1,1.3-0.3,1.9-0.4c1-0.1,1.2-0.2,1.5-1.4
		c-0.3,0.2-0.5,0.3-0.8,0.4C28.8,41.3,27.9,41.7,27,41.6z M12.4,26.6c0.3-0.1,0.7-0.1,1.1-0.2c0.1,0,0.4-0.2,0.4-0.3
		c0-0.2-0.2-0.5-0.3-0.5c-0.3,0-0.7,0-0.9,0.2c-0.5,0.3-0.9,0.3-1.4,0c-0.4-0.3-0.9-0.3-1.2,0.2c-0.1,0.2-0.2,0.5,0.3,0.5
		c1,0,1,0,1.1,0.9c0,0.1,0,0.2,0,0.2c0.1,0.2,0.3,0.4,0.4,0.6c0.2-0.2,0.5-0.3,0.5-0.5C12.5,27.4,12.4,27,12.4,26.6z M7.7,18
		c0.1-0.3,0.2-0.5,0.3-0.7c-0.8-0.4-1.6-0.8-2.5-1.2c0.1-0.3,0.2-0.5,0.3-0.7c0-0.1,0-0.3-0.1-0.4c-0.1,0-0.3,0-0.4,0.1
		c-0.4,0.8-0.7,1.6-1.1,2.4c0.5,0.1,0.5,0.1,1.1-0.7C6,17.3,6.8,17.7,7.7,18z M3.3,30.3c0.7-0.1,1.5-0.2,2.2-0.3
		c0.3,0,0.7,0,0.6-0.5c-0.1-0.5-0.4-0.4-0.7-0.3c-0.7,0.1-1.4,0.2-2.2,0.3c0-0.3,0-0.5-0.1-0.6c-0.1-0.2-0.2-0.3-0.4-0.4
		c-0.1,0.2-0.2,0.3-0.2,0.5c0.1,0.8,0.2,1.6,0.3,2.5C3.5,31.3,3.5,31.3,3.3,30.3z M9.1,18.8c-0.4-0.2-0.7,0-0.9,0.5
		c-0.5,1.5-1,3-1,4.7c0.3-0.1,0.5-0.2,0.6-0.4C8.2,22.1,8.6,20.5,9.1,18.8z M50.3,33c0.3-0.1,0.6-0.1,0.6-0.2
		c0.2-0.8,0.3-1.6,0.5-2.4c0-0.1-0.2-0.2-0.3-0.3c-0.1,0.1-0.2,0.2-0.3,0.3c-0.1,0.2-0.1,0.4-0.2,0.7c-0.9-0.2-1.8-0.3-2.7-0.5
		c-0.3,0.6-0.1,0.8,0.4,0.9c0.7,0.1,1.4,0.3,2.1,0.4C50.4,32.2,50.3,32.5,50.3,33z M2.8,22.8c-0.1,0.9-0.2,1.7-0.3,2.5
		c0,0.4,0.1,0.5,0.5,0.4c0.1-0.3,0.1-0.6,0.2-0.9c0.7,0.1,1.5,0.1,2.2,0.2C6,25,6,24.7,5.9,24.2C5,24.1,4.1,24,3.3,23.9
		C3.1,23.4,3.7,22.8,2.8,22.8z M28.5,16.1c0.3,0.1,0.6,0.1,0.9,0.2c0.1,0,0.2-0.1,0.3-0.2c0,0,0-0.2-0.1-0.3c-0.5-0.4-1-0.8-1.5-1.1
		c-0.2-0.2-0.5-0.3-0.8-0.3c-0.3,0.1-0.5,0.4-0.8,0.6c0.2,0.1,0.4,0.3,0.6,0.4c0.1,0,0.2,0.1,0.1,0c0.2,0.5,0.4,1,0.6,1.4
		c0.1,0,0.2,0,0.2-0.1C28.3,16.5,28.4,16.3,28.5,16.1z M48.8,25.6c1-0.1,1.8-0.1,3-0.2c-0.3-0.3-0.4-0.7-0.5-0.7c-1,0-2,0-3,0
		c0,0.9,0,1.6,0,2.3c0,0.1,0.3,0.3,0.4,0.4c0.1,0,0.1-0.1,0.2-0.1C48.8,26.7,48.8,26.2,48.8,25.6z M23.2,46.1c2.6,0.6,5.2,0.7,7.8,0
		C28.3,46.1,25.8,46.1,23.2,46.1z M18.6,8.3c0.6,0.3,1.2,0.5,1.9,0.8c0.2,0.1,0.6,0.2,0.8,0.1c0.5-0.3,1-0.7,1.6-1.1
		C21.1,7.8,19.2,7.9,18.6,8.3z M10,43.6c0.1-0.5,0.2-0.7,0.3-1c0.3-0.1,0.6-0.1,0.8-0.2c-0.7-0.4-0.6-0.9-0.5-1.3
		c-0.6,0-1.1,0-1.6,0c0.5,0.6-0.1,1-0.6,1.6C9.2,42.5,9.7,42.8,10,43.6z M45.2,41c0-0.1-0.1-0.1-0.1-0.2c-0.5,0.7-1,0.4-1.7,0.1
		c0.6,0.8,0,1.2-0.4,1.9c0.9-0.4,1.3,0.1,1.6,0.9c0-0.9,0.4-1.3,1.3-1.2c-0.4-0.3-0.7-0.5-0.9-0.7C45.1,41.5,45.2,41.3,45.2,41z
		 M40.6,28.5c0.4,0.3,5.7,0.4,6.5,0.1C46.8,28.2,41.3,28.2,40.6,28.5z M51.3,22.6c-1,0.1-2,0.3-2.9,0.4c-0.1,0-0.3,0.3-0.4,0.4
		c0.2,0.1,0.3,0.4,0.5,0.3c1-0.1,1.9-0.3,2.9-0.4C51.3,23.1,51.3,22.9,51.3,22.6z M2.5,26.7c0,0.3,0,0.5,0,0.7c1.2,0,2.2,0,3.4,0
		c0-0.3,0-0.5,0-0.7C4.7,26.7,3.6,26.7,2.5,26.7z M48.3,28.1c-0.3,0.6-0.3,0.8,0.1,0.8c1,0.1,2,0.1,3,0.2c0-0.3,0.1-0.4,0.1-0.7
		C50.4,28.3,49.4,28.2,48.3,28.1z M7.1,40.9C8,40.2,8.9,39.6,9.8,39c-0.2-0.2-0.3-0.4-0.5-0.6c-0.9,0.7-1.8,1.3-2.8,1.9
		C6.8,40.5,6.9,40.6,7.1,40.9z M40.7,6.2C40,7.2,39.4,8.1,38.8,9c0.2,0.2,0.4,0.3,0.6,0.4c0.6-0.9,1.3-1.8,1.9-2.8
		C41.1,6.5,40.9,6.4,40.7,6.2z M7.2,29.5c-0.1,0.1-0.2,0.1-0.2,0.2c0.4,1.4,0.9,2.9,1.3,4.3c0.1,0.2,0.3,0.3,0.4,0.5
		c0.1,0,0.1-0.1,0.2-0.1c-0.2-0.7-0.5-1.5-0.7-2.2c-0.2-0.8-0.3-1.5-0.5-2.3C7.6,29.7,7.4,29.6,7.2,29.5z M12.5,40.4
		c-1.2-1.9-2.4-3.8-3.6-5.6c-0.1,0-0.1,0.1-0.2,0.1C9.6,36.9,10.9,38.7,12.5,40.4z M29.4,11.4c0.2-0.1,0.4-0.3,0.6-0.4
		c-1-1.8-1.7-2.4-3.2-2.5c0.1,0.3,0.2,0.6,0.4,0.6c0.6,0.3,1.2,0.5,1.7,0.6C29.1,10.4,29.3,10.9,29.4,11.4z M40.5,31.4
		c-0.1,0-0.1-0.1-0.2-0.1c-0.4,1.4-1,2.7-2.5,3.3c0.4,0.1,0.8,0.1,1.2,0c0.2,0,0.4-0.1,0.4-0.2C39.8,33.4,40.1,32.4,40.5,31.4z
		 M31.8,39c-0.6,0.5-1.1,0.8-1.6,1.2c-0.2,0.2-0.3,0.4-0.5,0.6c0,0,0.2,0.3,0.3,0.3c0.3,0,0.7-0.1,0.8-0.3
		C31.2,40.3,31.4,39.7,31.8,39z M24.6,8.5c0-0.5-0.5-0.7-0.9-0.5c-0.6,0.4-1.1,0.8-1.8,1.3c0.4,0.1,0.6,0.2,0.6,0.1
		C22.6,9,23,9.1,23.4,9.2c0.1,0,0.5-0.2,0.5-0.3C23.7,8.1,24.2,8.4,24.6,8.5z M26.2,15c0.3-0.7,0-1.5-0.5-1.7
		c-0.2-0.1-0.5,0-0.6,0.1c-0.1,0.1-0.1,0.4,0,0.5C25.4,14.3,25.8,14.6,26.2,15z M22.4,12.3c0.3,0.1,0.6,0.2,0.9,0.2
		c0.2,0,0.5-0.2,0.5-0.3c0-0.1-0.1-0.4-0.3-0.5c-0.3-0.2-0.7-0.3-1-0.4C22.5,11.6,22.4,11.9,22.4,12.3z M40.2,41.8
		c-0.1-0.1-0.1-0.2-0.2-0.3c-1.1,0.5-1.8,1.6-2.9,2.2c0,0.1,0.1,0.1,0.1,0.2C38.2,43.2,39.2,42.5,40.2,41.8z M25.7,8
		c-0.2,0.1-0.5,0.3-0.7,0.4c-0.1,0.1-0.1,0.2-0.2,0.4c0.1,0,0.3,0.1,0.4,0.1c0.2,0,0.4,0.1,0.5,0.1c0.2,0,0.5,0,0.7-0.1
		c-0.1-0.2-0.1-0.4-0.2-0.5C26.1,8.2,25.9,8.1,25.7,8z M13.1,11.9c0.7,0.1,1.8-0.8,2.4-1.9C14.7,10.6,14,11.2,13.1,11.9z M27.3,10.1
		c-0.6,0.5-0.3,1.1-0.3,1.6c0,0.1,0.2,0.2,0.2,0.3c0.1-0.1,0.3-0.3,0.3-0.4C27.5,11.2,27.4,10.7,27.3,10.1z M20.7,7.5
		c0.9,0,1.7,0,2.5,0C22.4,7,21.6,6.9,20.7,7.5z M27,23.3c0,0.3,0,0.5,0,0.8c0.4,0,0.7,0,1.1,0c0,0,0-0.1,0-0.1
		C27.8,23.7,27.5,23.5,27,23.3z M15.8,11.2c-0.2-0.1-0.5-0.2-0.5-0.1c-0.3,0.2-0.6,0.5-0.8,0.8c0,0,0.1,0.1,0.1,0.1
		C15,11.8,15.3,11.5,15.8,11.2z"/>
	<path class="st0" d="M30.7,22.1c-0.2-0.5-0.7-0.8-1.4-0.5c0.1-0.7,0.3-0.9,0.9-0.8c0.4,0.1,0.7,0.4,1.1,0.5
		c0.3,0.1,0.6,0.1,0.9,0.1c0.2,0.1,0.4,0.2,0.5,0.4c-0.2,0.2-0.4,0.4-0.6,0.5c-0.2,0-0.5-0.1-0.7-0.2C31.2,22.1,31,22.1,30.7,22.1z"
		/>
	<path class="st0" d="M47.3,37.8c0.2,0.1,0.4,0.3,0.7,0.4c-0.2,0.3-0.3,0.6-0.5,0.9c-0.1,0.1-0.4,0.1-0.6,0.2c0-0.2-0.1-0.4-0.1-0.5
		C46.9,38.4,47.1,38.2,47.3,37.8z"/>
	<path class="st0" d="M37.7,46.4c-0.2-0.3-0.3-0.4-0.5-0.7c0.3-0.2,0.5-0.5,0.8-0.6c0.2-0.1,0.4,0,0.6,0c0,0.2,0,0.4-0.2,0.6
		C38.3,46,38.1,46.2,37.7,46.4z"/>
	<path class="st0" d="M29.5,2.9c0.4,0,0.7,0,1,0.1c0.1,0,0.2,0.3,0.4,0.4c-0.2,0.1-0.3,0.3-0.5,0.3c-0.3,0-0.6,0-0.9,0
		C29.5,3.4,29.5,3.2,29.5,2.9z"/>
	<path class="st0" d="M29.8,48.6c0.6,0.1,1.2,0,1.4,0.3c0.3,0.4,0.4,1,0.3,1.5c-0.1,0.3-0.7,0.5-1.2,0.7
		C30.1,50.2,30,49.5,29.8,48.6z"/>
	<path class="st0" d="M34.9,49.5c-0.6,0-1.1-0.7-1.1-1.3c0-0.5,0.5-1,1.1-1c0.6,0,1.1,0.6,1.1,1.3C35.9,49,35.4,49.5,34.9,49.5z"/>
	<path class="st0" d="M8.1,12.5c0.6,0,1.3,0.6,1.3,1.1c0,0.5-0.5,1-1,1c-0.6,0-1.3-0.6-1.3-1.1C7.1,13,7.6,12.5,8.1,12.5z"/>
	<path class="st0" d="M21.5,5.6c-0.6,0-1-0.5-1.1-1.2c0-0.6,0.4-1.1,1-1.1c0.6,0,1.1,0.5,1.1,1.3C22.5,5.2,22.1,5.6,21.5,5.6z"/>
	<path class="st0" d="M46.4,12.8c0,0.6-0.7,1.2-1.3,1.2c-0.5,0-1-0.5-1-1c0-0.6,0.6-1.2,1.2-1.2C45.9,11.7,46.4,12.2,46.4,12.8z"/>
	<path class="st0" d="M49.1,34.8c-0.3,0-0.7,0-1.1,0c0.1-0.3,0.2-0.5,0.3-0.8c0.3,0.3,0.6,0.5,0.9,0.7
		C49.2,34.8,49.2,34.8,49.1,34.8z"/>
	<path class="st0" d="M34.5,5.4c-0.4-0.1-0.6-0.2-0.9-0.3c0.3-0.3,0.5-0.6,0.8-0.9C34.4,4.6,34.5,4.9,34.5,5.4z"/>
	<path class="st0" d="M26.6,49.2c0.2,0.5,0.3,0.8,0.5,1.2c-0.3,0-0.6,0-1-0.1C26.2,49.9,26.4,49.6,26.6,49.2z"/>
	<path class="st0" d="M21,27.3c0-0.3-0.1-0.6-0.1-0.9c0.1,0,0.3,0,0.4,0c0,0.3,0,0.6,0,1C21.2,27.3,21.1,27.3,21,27.3z"/>
</g>
</svg>
