<?xml version="1.0" encoding="utf-8"?>
<!-- Generator: Adobe Illustrator 23.0.1, SVG Export Plug-In . SVG Version: 6.00 Build 0)  -->
<svg version="1.1" id="Capa_1" xmlns="http://www.w3.org/2000/svg" xmlns:xlink="http://www.w3.org/1999/xlink" x="0px" y="0px"
	 viewBox="0 0 15.11 15.11" style="enable-background:new 0 0 15.11 15.11;" xml:space="preserve">
<style type="text/css">
	.st0{fill:#95C11F;}
</style>
<g>
	<g>
		<g>
			<polygon class="st0" points="10.35,7.11 13.14,7.11 13.14,7.06 10.29,7.06 			"/>
			<path class="st0" d="M11.39,8.05h1.72V7.99c0,0-0.83,0-1.78,0L11.39,8.05z"/>
			<path class="st0" d="M5.02,2.64"/>
			<g>
				<g>
					<path class="st0" d="M9.07,6.06C9,6.09,8.95,6.05,8.95,6.05C8.94,6.04,8.92,6.04,8.91,6.04c-0.05,0.01-0.1,0.09-0.1,0.09
						L8.8,6.13C8.81,6.05,8.71,6,8.7,5.99c0-0.02-0.11-0.05-0.21-0.08l0,0l0,0c-0.03-0.03-0.16-0.02-0.2-0.02
						c0,0-0.08,0.11-0.08,0.11C8.18,6.04,8.17,6.07,8.18,6.09c0.01,0.02,0.04,0.02,0.04,0.02c0,0,0.14-0.02,0.14-0.02
						c0.21,0.01,0.22,0.2,0.22,0.2c0,0.02,0.01,0.03,0.02,0.03C8.63,6.32,8.66,6.31,8.67,6.3c0-0.01,0-0.09,0-0.09l0.11,0.01l0,0.01
						c0.01,0.11,0.13,0.1,0.14,0.09C9.02,6.34,9.07,6.32,9.09,6.3c0.02-0.02,0.02-0.04,0.02-0.04c0.04-0.04,0.05-0.08,0.05-0.11
						C9.15,6.08,9.07,6.06,9.07,6.06z M8.67,6.12H8.61c0,0-0.17-0.12-0.25-0.11C8.27,6.02,8.28,6.01,8.39,5.96
						c0,0,0.26,0.07,0.3,0.11C8.69,6.06,8.75,6.11,8.67,6.12z M9.04,6.22C9.01,6.23,8.98,6.26,8.9,6.24V6.17l0.17-0.01
						C9.07,6.16,9.1,6.21,9.04,6.22z"/>
				</g>
			</g>
			<path class="st0" d="M9.13,2.34L8.97,2.35l0,0.01c0.01,0.04,0.09,0.1,0.12,0.11c0.02,0,0.03,0,0.03-0.01
				C9.16,2.44,9.14,2.36,9.13,2.34L9.13,2.34L9.13,2.34z"/>
			<path class="st0" d="M6.53,2.62L6.53,2.62L6.53,2.62c0-0.01,0.01-0.09,0.04-0.11c0.02-0.01,0.04,0,0.07,0.01
				c0,0.02,0,0.1-0.02,0.13C6.61,2.65,6.6,2.66,6.59,2.65C6.55,2.64,6.52,2.63,6.53,2.62C6.52,2.62,6.53,2.62,6.53,2.62z"/>
			<path class="st0" d="M3.91,7.26C3.86,7.22,3.8,7.23,3.8,7.23C3.69,7.22,3.44,7.4,3.44,7.4H3.43C3.4,7.35,3.2,7.25,3.2,7.25
				C3.01,7.17,2.95,7.35,2.95,7.35C2.91,7.44,3.01,7.41,3.01,7.41c0.05-0.02,0.22-0.01,0.22-0.01c0.13,0.02,0.13,0.13,0.13,0.13
				C3.24,7.8,3.43,7.9,3.43,7.9c0.23-0.15,0.06-0.38,0.06-0.38C3.54,7.42,3.66,7.4,3.66,7.4l0.26-0.01
				C3.97,7.33,3.91,7.26,3.91,7.26z M3.47,7.71C3.46,7.73,3.44,7.74,3.44,7.74l0,0l0,0C3.41,7.73,3.41,7.71,3.4,7.7
				c0-0.03,0.02-0.05,0.02-0.06l0.01-0.01l0.01,0.01C3.46,7.67,3.47,7.69,3.47,7.71z"/>
			<path class="st0" d="M6.39,7.23c-0.06-0.07-0.09,0-0.09,0C6.26,7.31,6.15,7.31,6.15,7.31c-0.23-0.07-0.34,0-0.34,0
				C5.78,7.3,5.68,7.3,5.68,7.3L5.66,7.28C5.55,7.17,5.5,7.25,5.5,7.25C5.42,7.36,5.72,7.47,5.72,7.47
				c0.11,0.47,0.26,0.41,0.26,0.41C6.15,7.9,6.24,7.41,6.24,7.41C6.45,7.34,6.39,7.23,6.39,7.23z M6.04,7.66
				c0,0-0.03,0.03-0.03,0.08c0,0-0.02,0.06-0.06,0c0,0,0-0.05-0.02-0.07c0,0-0.12-0.14-0.08-0.27c0,0,0.14-0.12,0.25,0.01
				C6.11,7.42,6.12,7.55,6.04,7.66z"/>
			<path class="st0" d="M11.57,7.21c-0.37,0.02-0.38,0.22-0.38,0.22c0.03,0.07,0.06,0,0.06,0c0.11-0.12,0.25-0.11,0.25-0.11
				c0.19-0.03,0.24,0.08,0.24,0.08l-0.01,0.02c-0.04,0.03-0.04,0.11-0.04,0.11c0.03,0.17,0.16,0.15,0.16,0.15
				C12,7.7,12,7.54,12,7.54C11.97,7.25,11.57,7.21,11.57,7.21z M11.85,7.61c-0.03,0-0.05-0.03-0.05-0.06c0-0.04,0.02-0.06,0.05-0.06
				c0.03,0,0.05,0.03,0.05,0.06C11.9,7.58,11.88,7.61,11.85,7.61z"/>
			<path class="st0" d="M12.08,7.69c-0.1,0.12-0.25,0.11-0.25,0.11c-0.18,0.04-0.25-0.08-0.25-0.08L11.6,7.7
				c0.04-0.03,0.04-0.11,0.04-0.11c-0.04-0.17-0.16-0.14-0.16-0.14c-0.15-0.01-0.15,0.15-0.15,0.15c0.04,0.29,0.44,0.32,0.44,0.32
				c0.37-0.04,0.38-0.23,0.38-0.23C12.11,7.62,12.08,7.69,12.08,7.69z M11.51,7.64l-0.03,0.01l-0.03-0.01
				c-0.01-0.01-0.02-0.03-0.02-0.05c0,0,0,0,0,0c0-0.02,0.01-0.04,0.02-0.05l0.03-0.01l0.03,0.01c0.01,0.01,0.02,0.03,0.02,0.05
				C11.53,7.61,11.52,7.63,11.51,7.64z"/>
			<path class="st0" d="M7.32,14.03l0.28,0l-0.14-0.35L7.32,14.03z M5.92,1.68c0.06,0.04,0.14,0.05,0.22,0.03
				c0.08-0.02,0.14-0.06,0.18-0.13c0.04-0.07,0.04-0.15,0.02-0.25C6.3,1.22,6.25,1.15,6.19,1.11C6.13,1.07,6.06,1.07,5.98,1.09
				C5.89,1.11,5.83,1.15,5.8,1.21C5.76,1.28,5.75,1.36,5.78,1.47C5.81,1.57,5.85,1.64,5.92,1.68z M13.46,9.5l-0.1,0.26l0.37-0.01
				L13.46,9.5z M2.27,4.13c0.09,0.06,0.17,0.08,0.24,0.07C2.59,4.19,2.65,4.15,2.7,4.09c0.05-0.07,0.06-0.14,0.05-0.21
				C2.73,3.8,2.68,3.73,2.59,3.67C2.5,3.61,2.42,3.59,2.35,3.6C2.28,3.61,2.22,3.65,2.17,3.72C2.12,3.79,2.11,3.86,2.12,3.93
				C2.13,4.01,2.18,4.07,2.27,4.13z M7.55,0.47c-3.91,0-7.09,3.17-7.09,7.09c0,3.91,3.17,7.09,7.09,7.09c3.91,0,7.09-3.17,7.09-7.09
				C14.64,3.64,11.47,0.47,7.55,0.47z M14.33,7.16l-0.76,0.02l0.02,0.51l-0.16,0l-0.02-0.72l0.92-0.03L14.33,7.16z M14.29,6.6
				l-0.91,0.14l-0.03-0.2l0.91-0.14L14.29,6.6z M14.01,5.38l-0.55,0.36l0.66-0.01l0.09,0.3l-0.89,0.27l-0.05-0.18l0.7-0.21
				l-0.76,0.02l-0.06-0.19l0.64-0.4l-0.7,0.21l-0.05-0.18l0.89-0.27L14.01,5.38z M11.03,11.49h-0.97c0.46-0.56,0.78-1.14,0.99-1.66
				l1.11,0.01C11.93,10.36,11.58,10.95,11.03,11.49z M11.08,11.61h0.18c-0.4,0.35-0.85,0.65-1.34,0.88
				C10.38,12.22,10.76,11.92,11.08,11.61z M7.66,12.7c0.19-0.08,0.24-0.3,0.24-0.33c0.01,0,0.09-0.01,0.09-0.01
				c0.02,0.01,0.03,0.01,0.04,0.01c-0.1,0.12-0.22,0.24-0.33,0.35c-0.02,0-0.03,0-0.03,0h0C7.67,12.71,7.67,12.71,7.66,12.7z
				 M8.86,12.85C8.45,12.95,8.03,13,7.59,13c-0.39,0-0.76-0.04-1.13-0.11c-0.02-0.01-0.03-0.02-0.04-0.03H8.86z M7.87,12.72
				c0.17-0.16,0.32-0.34,0.46-0.53c0.07-0.02,0.18-0.01,0.18-0.01c0.03,0,0.04-0.01,0.05-0.03c0.01-0.03-0.04-0.07-0.04-0.08
				c0,0-0.07-0.04-0.07-0.04l-0.01-0.01c0.09-0.14,0.17-0.28,0.25-0.43h1.12c-0.38,0.41-0.84,0.8-1.41,1.12H7.87z M6.53,12.34
				C6.52,12.39,6.51,12.4,6.5,12.4c-0.01,0-0.02-0.02-0.02-0.03c0,0-0.08-0.05-0.08-0.05c0,0-0.14-0.05-0.14-0.05
				c-0.2-0.06-0.25-0.02-0.25-0.02c-0.04,0.08-0.12,0.06-0.13,0.06c-0.04-0.02-0.08-0.02-0.12-0.01c0,0,0,0,0,0
				c-0.24-0.23-0.46-0.46-0.65-0.69h1.17c0.09,0.16,0.19,0.32,0.3,0.48c-0.04,0.04-0.05,0.14-0.05,0.2
				C6.53,12.32,6.53,12.34,6.53,12.34z M2.37,8.29h1.15l0,0.01c0,0.02,0.05,0.57,0.34,1.35l-1.1-0.01C2.71,9.54,2.67,9.45,2.64,9.36
				C2.49,8.96,2.41,8.59,2.37,8.29z M2.62,9.63l-0.12,0C2.32,9.21,2.19,8.76,2.12,8.29h0.13c0.05,0.31,0.13,0.69,0.28,1.1
				C2.56,9.47,2.59,9.55,2.62,9.63z M3.98,9.65C3.73,8.99,3.66,8.5,3.64,8.34L3.63,8.29h1.63c0.03,0.43,0.1,0.89,0.22,1.37
				L3.98,9.65z M5.51,9.78c0.15,0.55,0.37,1.13,0.7,1.71h-1.2c-0.47-0.6-0.78-1.21-0.98-1.73L5.51,9.78z M3.9,9.76
				c0.2,0.52,0.51,1.12,0.96,1.73H4.01c-0.59-0.6-0.97-1.21-1.21-1.74L3.9,9.76z M3.97,11.61c0.09,0.09,0.18,0.18,0.28,0.27
				c-0.11-0.08-0.22-0.17-0.33-0.27H3.97z M4.13,11.61h0.82c0.21,0.26,0.44,0.52,0.71,0.77c-0.07,0.08-0.11,0.18-0.13,0.22
				c-0.1-0.04-0.2-0.08-0.29-0.13C4.81,12.19,4.44,11.9,4.13,11.61z M6.41,11.61h1.06v0.54c-0.08,0.05-0.13,0.14-0.14,0.15
				c-0.1,0-0.29-0.04-0.3-0.04l-0.11-0.02c-0.04-0.08-0.16-0.17-0.17-0.17c0,0-0.03-0.02-0.03-0.02c0-0.01,0-0.01-0.01-0.01
				c-0.01,0-0.02,0-0.03,0C6.59,11.89,6.5,11.75,6.41,11.61z M6.34,11.49c-0.33-0.57-0.55-1.15-0.71-1.71L7.47,9.8v1.69H6.34z
				 M5.61,9.66C5.48,9.19,5.42,8.73,5.39,8.29h2.08v1.39L5.61,9.66z M2.09,8.11c0-0.02,0-0.04-0.01-0.06h6.32c0,0,0,0.01,0,0.01
				c0,0,0,0,0,0s0.01,0.02,0.01,0.05H2.09z M7,2.53l0.02-0.05l0.09-0.02C7.18,2.47,7.17,2.4,7.17,2.4l0.06-0.09
				c0.05,0.11,0.18,0.16,0.18,0.16c0.02,0.01,0.04,0.02,0.06,0.03v0.12c-0.02,0-0.05,0.01-0.08,0.03c0,0-0.08,0.02-0.12,0.09
				c0-0.01,0-0.02,0-0.03c0-0.02,0-0.03-0.01-0.05C7.25,2.59,7.21,2.58,7.19,2.57C7.14,2.56,7.08,2.6,7.08,2.61l0,0
				c0,0-0.01,0.02-0.02,0.02c-0.04-0.04-0.1-0.09-0.1-0.09C6.81,2.42,6.73,2.47,6.72,2.48L6.68,2.5l0.06,0.16c-0.01,0-0.01,0-0.01,0
				c-0.02-0.01-0.1,0.02-0.15,0.05l0,0l0,0C6.51,2.66,6.46,2.64,6.42,2.66c-0.07,0.03-0.1,0.15-0.1,0.15c0,0,0,0,0,0.01
				c-0.05-0.05-0.11-0.08-0.15-0.1c0.19-0.15,0.36-0.27,0.51-0.37h0.21l0,0c0.04-0.01,0.04,0.09,0.04,0.09L6.92,2.5L7,2.53z
				 M7.6,2.77c0,0,0.08,0.01,0.11,0c0.01,0,0.01,0,0.01,0c0.01,0,0.01,0.01,0.01,0.02c-0.01,0-0.07,0-0.07,0
				c0,0-0.08,0.04-0.08,0.04c0,0-0.02,0-0.03,0c0-0.01,0-0.03,0-0.03L7.48,2.78c0,0-0.1,0-0.11,0c0-0.01,0-0.03-0.01-0.04
				c0.01,0,0.16-0.01,0.18-0.01c0,0.01-0.01,0.03-0.01,0.03H7.6z M9.01,3.14h0.09c0.16-0.02,0.04-0.18,0.04-0.18L8.99,2.84L8.8,2.66
				C8.78,2.63,8.78,2.6,8.78,2.57c0.21,0.14,0.6,0.44,1.02,0.89H8.7C8.53,3.14,8.38,2.89,8.28,2.74C8.29,2.75,8.3,2.76,8.3,2.76
				l0.14,0.2l0.08,0.01l0.07,0.06L8.63,3.1l0.08,0.02l0.14,0.04C9.01,3.25,9.01,3.14,9.01,3.14z M8.89,2.35
				C8.9,2.36,8.91,2.37,8.91,2.37L9.06,2.5C9.2,2.65,9.22,2.46,9.22,2.46l0-0.09c0.28,0.12,0.96,0.46,1.64,1.09H9.95
				C9.53,2.99,9.12,2.67,8.88,2.5c0-0.02-0.04-0.04-0.04-0.04L8.77,2.35H8.89z M8.72,2.23C8.73,2.2,8.8,2.22,8.8,2.22
				c0,0,0,0,0,0.01H8.72z M8.09,11.34c0.01,0.02,0.07,0.14,0.07,0.14c0,0,0,0,0,0.01H7.59V9.8l1.03,0.01
				c-0.07,0.12-0.18,0.31-0.19,0.33c-0.12,0.15-0.16,0.43-0.16,0.52c-0.09,0.08-0.18,0.31-0.21,0.41c-0.01,0.05-0.02,0.09-0.02,0.12
				C8.03,11.28,8.06,11.32,8.09,11.34z M8.33,11.3c0.05-0.02,0.24-0.12,0.24-0.12c0.12-0.05,0.22-0.22,0.26-0.28
				c0.02-0.01,0.05-0.03,0.08-0.06c-0.09,0.22-0.18,0.44-0.29,0.65H8.36l0,0c0,0-0.02-0.09-0.03-0.1
				C8.33,11.37,8.33,11.33,8.33,11.3z M8.68,9.69L7.59,9.68V8.29h0.9C8.6,8.53,8.81,8.9,8.83,8.92l0.01,0.02l0.02,0.01
				c0.06,0.02,0.07,0.07,0.07,0.11c0,0.03-0.01,0.06-0.01,0.06C8.91,9.11,8.73,9.56,8.68,9.69z M8.88,7.78
				C8.86,7.79,8.82,7.82,8.81,7.85c0,0-0.02,0.05-0.1,0.04c0,0.01-0.02,0.05-0.02,0.06c0,0-0.06,0.02-0.09,0
				C8.58,7.93,8.58,7.92,8.58,7.91c0,0-0.04-0.03-0.04-0.07c0-0.02,0.02-0.03,0.04-0.04c0,0,0.03-0.06,0.02-0.1
				c0-0.01-0.01-0.02-0.03-0.03c0,0-0.03-0.04-0.02-0.07c0-0.02,0.02-0.04,0.04-0.05l0.04-0.07l0,0c0,0,0.06-0.04,0.11-0.03
				C8.77,7.46,8.78,7.48,8.79,7.5c0.03,0,0.09,0,0.11,0.03c0.01,0,0.05-0.01,0.08,0.01c0.02,0.02,0.04,0.05,0.04,0.09
				C9.01,7.64,9,7.72,8.88,7.78z M8.96,6.53L8.96,6.53c-0.01,0-0.2,0.19-0.22,0.21C8.71,6.75,8.6,6.78,8.6,6.78
				C8.56,6.79,8.54,6.79,8.52,6.78c-0.06-0.04-0.09-0.16-0.1-0.2C8.39,6.39,8.19,6.35,8.09,6.35l-0.01,0l-0.01,0
				c-0.03,0.01-0.04,0.01-0.04,0c0,0,0-0.02,0-0.03l0,0l0.02-0.2C8.06,6.04,8.03,6,8,5.99C7.94,5.96,7.87,6,7.84,6.02
				c-0.03,0.01-0.08,0.05-0.2,0.15c-0.02,0-0.03-0.01-0.05-0.02V5.61c0.13-0.02,0.3-0.04,0.3-0.04s0-0.01,0.01-0.02
				c0.02,0,0.08,0.01,0.14,0.02c0,0,0.12,0.04,0.12,0.04l0.02,0.01c0,0,0.01,0,0.01-0.01c0,0.01,0,0.02,0,0.02l0,0.02l0.01,0.01
				l0.07,0.1l0.01,0.01C8.31,5.8,8.42,5.86,8.5,5.8c0.05-0.04,0.06-0.1,0.06-0.15c0-0.02,0-0.04,0-0.05c0-0.01,0-0.17,0-0.17
				L8.52,5.42c-0.01,0-0.01-0.01-0.01-0.01c0,0,0,0,0-0.01c0-0.02,0.01-0.04,0.02-0.06l0.85,0c0.14,0.45,0.23,0.9,0.23,1.32
				c-0.06,0-0.11,0-0.14,0c-0.03-0.03-0.1-0.05-0.25-0.09C9.21,6.54,9.19,6.52,9.17,6.51C9.09,6.47,8.98,6.52,8.96,6.53z M7.98,6.79
				l-0.4,0V6.57c0.02,0.01,0.04,0.01,0.04,0.01C7.69,6.64,7.91,6.76,7.98,6.79z M7.69,3.14l0.03,0L7.7,3.23c0,0,0.02,0.09,0.03,0.11
				c0,0.01-0.01,0.07-0.03,0.12H7.59V2.99l0.11-0.03L7.68,3.09L7.69,3.14z M7.77,3.58C7.85,3.59,7.89,3.62,7.9,3.63
				c0,0.03-0.01,0.12-0.01,0.12s0,0.01,0,0.01c-0.06-0.1-0.15-0.12-0.16-0.12l-0.01,0c0,0-0.11,0-0.14,0V3.58H7.77z M7.87,2.91
				c0,0,0.02-0.05,0.08-0.01L7.97,2.9c0,0,0.12,0,0,0.06c0,0-0.04,0.09,0.05,0.11c0,0,0.06,0.04,0,0.05c0,0-0.12,0.01-0.19-0.06
				c0,0-0.04-0.09,0.04-0.09C7.87,2.97,7.92,2.93,7.87,2.91z M7.87,4.36L7.87,4.36c0,0-0.14-0.06-0.14-0.06l0,0
				c-0.01,0-0.06-0.02-0.06-0.05c0-0.02,0.03-0.03,0.08-0.04c0.12,0.06,0.18,0.11,0.19,0.13c0,0,0.13,0.06,0.13,0.06l0.01,0.06
				c0,0-0.05-0.02-0.06-0.02c0,0-0.07-0.03-0.07-0.03l-0.04,0C7.92,4.42,7.87,4.36,7.87,4.36z M7.9,4.6c0,0,0,0.03-0.02,0.04
				c-0.01,0-0.03,0-0.06-0.03V4.53l0,0c0-0.01,0.03-0.04,0.05-0.03c0.01,0,0.01,0.01,0.02,0.03C7.89,4.53,7.9,4.6,7.9,4.6z
				 M7.92,3.16c-0.01,0-0.02-0.01-0.02-0.01l0.02,0C7.92,3.14,7.92,3.15,7.92,3.16z M8.34,4.39c0-0.01,0-0.03,0.01-0.04
				c0,0,0.03-0.05,0.07-0.05c0.02,0,0.04,0.01,0.06,0.05c0,0,0.01,0.08-0.03,0.1C8.42,4.46,8.39,4.46,8.35,4.43
				C8.35,4.43,8.34,4.41,8.34,4.39z M8.68,5l0-0.01c0,0,0-0.01-0.01-0.01c0,0,0-0.01,0-0.01c0-0.02,0.01-0.07,0.03-0.12l0,0
				c0,0,0.04-0.18,0.04-0.2c0.01-0.01,0.05-0.08,0.05-0.09c0.01-0.01,0.06-0.06,0.08-0.09c0.01,0,0.03,0.01,0.03,0.01l0.14-0.01
				c0.11,0.25,0.21,0.51,0.3,0.78l-0.72,0c0.05-0.07,0.05-0.17,0.05-0.21C8.68,5.01,8.68,5,8.68,5z M10.95,5.24L9.47,5.23
				C9.37,4.9,9.24,4.57,9.1,4.26L9.1,4.13c0,0-0.03,0-0.06,0l0.01-0.06c0-0.01,0-0.01,0-0.01c0.01-0.01,0.04,0,0.06,0.01
				c0,0,0.09,0.1,0.09,0.1c0.04,0.03,0.07,0.04,0.1,0.03c0.06-0.03,0.07-0.16,0.07-0.17C9.37,3.93,9.2,3.87,9.19,3.87
				C9.17,3.84,9.1,3.82,9.09,3.82l0,0l0,0c0,0,0,0,0,0c0,0,0-0.01,0-0.01c0.02-0.08-0.04-0.17-0.1-0.22H9.9
				C10.28,4.01,10.67,4.56,10.95,5.24z M10.06,3.58h0.93c0.44,0.43,0.86,0.97,1.17,1.66l-1.08,0C10.81,4.57,10.43,4.02,10.06,3.58z
				 M9.16,3.98L9.16,3.98c0.01,0,0.1-0.02,0.13,0.02C9.3,4.02,9.3,4.05,9.28,4.09l0,0l0,0C9.27,4.09,9.18,4.1,9.16,3.98L9.16,3.98z
				 M9.51,5.35L11,5.36c0.17,0.43,0.29,0.91,0.34,1.44L10,6.8C9.93,6.73,9.83,6.7,9.73,6.68C9.74,6.26,9.65,5.8,9.51,5.35z
				 M11.13,5.36l1.08,0c0.18,0.43,0.31,0.91,0.38,1.44l-1.12,0C11.42,6.27,11.3,5.79,11.13,5.36z M12.34,5.36l0.39,0v0
				c0.19,0.45,0.31,0.94,0.37,1.44l-0.39,0C12.64,6.27,12.51,5.79,12.34,5.36z M12.29,5.24c-0.3-0.68-0.71-1.23-1.14-1.66h0.4v0
				c0.47,0.48,0.85,1.04,1.13,1.67L12.29,5.24z M11.03,3.46c-0.61-0.58-1.23-0.94-1.59-1.12h0.3c0.63,0.27,1.21,0.65,1.69,1.12
				H11.03z M8.45,3.26c-0.04-0.03-0.07-0.03-0.1-0.03C8.31,3.24,8.29,3.28,8.29,3.31C8.28,3.33,8.27,3.34,8.27,3.35
				c0,0-0.01-0.01-0.01-0.01L8.25,3.33L8.24,3.32L8.18,3.27c0,0,0,0,0.01,0c0,0,0.17-0.15-0.04-0.22c0,0-0.04-0.05-0.01-0.06
				c0,0,0.06-0.18-0.06-0.14c0,0-0.09,0.01-0.19-0.1c0,0-0.01-0.08-0.26-0.06c0,0-0.01-0.02-0.04-0.04V2.49
				c0.03,0,0.06,0.01,0.06,0.01l0.14,0.05c0.06,0.06,0.28,0.12,0.28,0.12c0.01,0,0.02,0,0.03,0C8.12,2.71,8.26,2.93,8.45,3.26z
				 M4.03,5.33l1.54,0.01c-0.1,0.33-0.22,0.84-0.28,1.45l-1.65,0C3.69,6.26,3.84,5.77,4.03,5.33z M3.52,6.78l-1.13,0
				c0.09-0.53,0.25-1.02,0.45-1.46l1.07,0C3.72,5.77,3.58,6.26,3.52,6.78z M5.71,4.26l0,0.01C5.68,4.38,5.67,4.49,5.67,4.59
				c0,0.14,0.02,0.26,0.04,0.33C5.7,4.94,5.66,5.05,5.6,5.22L4.09,5.21c0.3-0.64,0.71-1.18,1.13-1.63h0.19
				c0.04,0.01,0.08,0.01,0.11,0.01c0.04,0.29,0.2,0.49,0.27,0.57C5.76,4.2,5.71,4.26,5.71,4.26z M5.85,5.22l-0.12,0
				c0.02-0.06,0.03-0.1,0.05-0.14L5.85,5.22z M5.69,5.34l0.22,0l0.03,0.06l0,0c0.42,0.53,0.5,0.5,0.55,0.49
				c0.02-0.01,0.03-0.02,0.04-0.04c0,0.01,0.02,0.04,0.02,0.04L6.58,5.9c0.07,0.02,0.19,0.25,0.26,0.44l0.01,0.03l0.57,0.21
				l0.02-0.01c0.01,0,0.02-0.01,0.03-0.01v0.23l-2.06,0C5.48,6.16,5.6,5.66,5.69,5.34z M6.17,3.07c0,0,0.11-0.11,0.17,0.02
				c0,0,0.1,0.12-0.09,0.12C6.25,3.22,6.07,3.23,6.17,3.07z M6.47,2.88c0.01,0,0.02,0,0.03,0.01C6.49,2.88,6.48,2.88,6.47,2.88z
				 M6.59,3.48c0,0-0.09,0.08-0.12-0.02C6.47,3.45,6.6,3.37,6.59,3.48z M6.9,2.83c0.01,0.01,0.03,0.03,0.04,0.04
				C6.92,2.9,6.89,2.92,6.88,2.92C6.83,2.91,6.77,2.91,6.72,2.92C6.77,2.91,6.8,2.9,6.81,2.9c0.02,0.01,0.04,0,0.06-0.01
				C6.89,2.87,6.9,2.83,6.9,2.83z M6.87,2.62C6.87,2.63,6.87,2.63,6.87,2.62c0.01,0.01,0.16,0.15,0.16,0.15c0,0-0.01,0.01-0.01,0.01
				c-0.04-0.04-0.1-0.11-0.1-0.11C6.92,2.68,6.89,2.65,6.87,2.62z M6.75,2.83L6.67,2.85c0,0,0.02-0.19,0.12-0.09
				C6.8,2.77,6.83,2.81,6.75,2.83z M7.25,2.82C7.25,2.82,7.25,2.82,7.25,2.82c-0.01,0-0.04,0-0.07,0c0,0,0.01,0,0.01-0.01
				C7.21,2.8,7.24,2.79,7.25,2.76C7.25,2.78,7.25,2.8,7.25,2.82z M7.21,3.91c0.01,0.01,0,0.03-0.02,0.06c0,0-0.02,0.01-0.04,0
				C7.14,3.96,7.13,3.95,7.12,3.93l0-0.01l0.01,0C7.14,3.91,7.2,3.89,7.21,3.91z M7.39,5.98c0-0.04,0-0.08,0-0.11
				c0-0.16,0.03-0.22,0.04-0.23c0.01,0,0.02,0,0.05-0.01v0.45C7.43,6.04,7.4,6,7.39,5.98z M7.38,3.46L7.38,3.46L7.37,3.45
				C7.33,3.42,7.32,3.4,7.32,3.37c0,0,0,0,0,0c0-0.06,0.06-0.13,0.09-0.15l0.02-0.02L7.42,3.15l0-0.01c0,0,0.03-0.01,0.05-0.01v0.33
				H7.38z M6.65,2.23H5.75c0.15-0.05,0.31-0.1,0.46-0.14L6.58,2.2l0.1,0.01C6.66,2.22,6.65,2.22,6.65,2.23z M6.47,2.35
				c-0.14,0.1-0.29,0.21-0.46,0.34c-0.05,0.01-0.11,0-0.14-0.01C5.86,2.68,5.49,2.51,5.49,2.51C5.25,2.4,5.04,2.54,4.95,2.64
				c-0.01,0-0.01,0-0.02,0L4.91,2.61c0.17-0.1,0.35-0.18,0.54-0.26H6.47z M4.94,3.37C4.93,3.39,4.92,3.41,4.92,3.44
				c0,0.01,0,0.02,0,0.03h-0.1l0.06-0.05l0-0.01C4.9,3.39,4.92,3.38,4.94,3.37z M5.06,3.58c-0.41,0.45-0.81,1-1.1,1.63l-1.06,0
				C3.22,4.54,3.63,3.99,4,3.58h0.3c0.01,0,0.02,0.01,0.03,0.01C4.4,3.62,4.51,3.61,4.59,3.58H5.06z M4.11,3.46
				c0.1-0.11,0.2-0.21,0.29-0.3c0.03,0.04,0.07,0.07,0.08,0.08l0.01,0l0.01,0c0.02,0.01,0.02,0.01,0.03,0.01
				C4.52,3.27,4.51,3.27,4.5,3.27C4.32,3.33,4.24,3.39,4.23,3.46H4.11z M3.95,3.46h-0.2c0.27-0.25,0.56-0.48,0.87-0.68
				c0,0.01,0.01,0.02,0.01,0.02C4.46,2.95,4.22,3.17,3.95,3.46z M3.85,3.58C3.48,4,3.08,4.55,2.77,5.21l-0.24,0
				C2.8,4.6,3.18,4.05,3.64,3.58H3.85z M2.71,5.32c-0.2,0.44-0.36,0.93-0.44,1.46l-0.17,0c0.06-0.51,0.19-1,0.38-1.46L2.71,5.32z
				 M8.15,6.98c0.04,0.03,0.07,0.06,0.11,0.08H2.07c0-0.03,0-0.05,0.01-0.08H8.15z M8.39,7.11c0.08,0.03,0.14,0.03,0.14,0.03h0.02
				l0.02-0.01c0.01-0.01,0.01-0.01,0.02-0.02h0.04c0,0,0,0.01,0,0.01c0,0.02-0.01,0.17-0.01,0.21c-0.03,0.02-0.11,0.1-0.11,0.1
				l0,0.01c0,0,0,0,0,0.01H8.21c0,0-0.01-0.01-0.01-0.01C8.11,7.26,7.94,7.25,7.94,7.25c-0.06,0-0.1,0.01-0.12,0.03
				C7.8,7.3,7.8,7.31,7.8,7.32c0,0.01,0,0.01,0,0.01v0c0,0.09,0.19,0.15,0.2,0.16c0.02,0,0.03,0.02,0.04,0.04c-0.02,0-0.06,0-0.06,0
				c0,0-0.06-0.02-0.06-0.02l-0.36,0C7.5,7.5,7.47,7.52,7.45,7.55C7.43,7.58,7.44,7.61,7.44,7.61c0.01,0.03,0.03,0.05,0.05,0.05
				c0.04,0.02,0.09-0.01,0.09-0.01c0.02,0,0.05-0.03,0.07-0.05c0.27-0.04,0.33,0.02,0.33,0.02l0,0l0,0c0.01,0,0.02,0,0.02,0
				C8.02,7.64,8,7.67,7.99,7.68C7.93,7.74,7.91,7.8,7.92,7.84C7.94,7.89,8,7.9,8,7.9c0.11,0.03,0.25-0.2,0.26-0.22
				c0.01,0,0.15,0,0.15,0L8.45,7.6C8.44,7.63,8.44,7.67,8.44,7.7c0,0.03,0,0.06,0,0.07C8.43,7.8,8.42,7.86,8.42,7.99H2.08
				C2.06,7.82,2.05,7.64,2.05,7.46c0-0.12,0-0.23,0.01-0.34H8.39z M7.59,11.61h0.63c0.03,0.06,0.05,0.12,0.05,0.12l0.11-0.03
				l-0.01-0.09h0.18c-0.07,0.13-0.14,0.25-0.22,0.37l-0.02-0.01c0,0-0.29-0.01-0.29-0.01c-0.21,0.03-0.23,0.06-0.23,0.06
				c0,0-0.16,0.08-0.16,0.08c-0.01,0-0.02,0-0.04,0V11.61z M8.75,11.49c0.13-0.26,0.24-0.52,0.34-0.8c0.37-0.15,0.4-0.31,0.4-0.36
				c0,0,0-0.02,0.01-0.03c0.03,0.02,0.09,0.05,0.09,0.05l0.03-0.01c0.36-0.13,0.6-0.35,0.74-0.52l0.58,0.01
				c-0.22,0.52-0.55,1.11-1.02,1.66H8.75z M10.44,9.71c0.01-0.02,0.02-0.03,0.03-0.04c0.19,0.01,0.32-0.11,0.32-0.12
				c0.3-0.24,0.38-0.63,0.4-0.7c0.01-0.01,0.06-0.09,0.11-0.15c-0.06,0.26-0.16,0.61-0.32,1.02L10.44,9.71z M11.11,9.71
				c0.27-0.69,0.36-1.23,0.38-1.39c0-0.01,0.01-0.02,0.01-0.04h1.1c-0.01,0.15-0.08,0.72-0.38,1.43L11.11,9.71z M12.71,8.29h0.36
				C13,8.79,12.85,9.28,12.65,9.73l-0.31,0C12.64,9,12.7,8.42,12.71,8.29z M11.49,8.11c-0.02-0.05-0.05-0.08-0.07-0.1
				c-0.09-0.17-0.35-0.33-0.41-0.36c-0.08-0.11-0.3-0.14-0.35-0.14l-0.01,0c0,0-0.02,0-0.03,0l0.01-0.02l0-0.02
				c-0.03-0.26-0.23-0.42-0.39-0.5h2.86c0.01,0.16,0.02,0.32,0.02,0.48c0,0.22-0.01,0.44-0.04,0.66H11.49z M12.68,3.2
				c0.05,0.01,0.1,0.03,0.15,0.05c0.06,0.04,0.11,0.09,0.16,0.15c0.09,0.12,0.13,0.24,0.12,0.36C13.09,3.89,13.02,4,12.9,4.09
				c-0.12,0.09-0.24,0.13-0.36,0.11c-0.12-0.02-0.23-0.09-0.32-0.21c-0.09-0.12-0.13-0.24-0.12-0.36c0.01-0.12,0.08-0.23,0.2-0.32
				c0.07-0.06,0.15-0.09,0.22-0.11C12.57,3.19,12.63,3.19,12.68,3.2z M12.15,2.49c0.09,0.08,0.14,0.18,0.16,0.28
				c0.01,0.06,0,0.13-0.04,0.2l-0.18-0.1c0.02-0.04,0.03-0.09,0.02-0.14c-0.01-0.05-0.03-0.09-0.08-0.12
				c-0.06-0.05-0.12-0.07-0.19-0.07c-0.07,0.01-0.14,0.05-0.21,0.13c-0.08,0.09-0.12,0.16-0.12,0.23c0,0.07,0.03,0.13,0.08,0.18
				c0.04,0.04,0.09,0.06,0.14,0.06c0.05,0,0.1-0.02,0.16-0.05l0.11,0.17c-0.09,0.05-0.18,0.08-0.26,0.07
				c-0.09-0.01-0.17-0.05-0.25-0.13c-0.1-0.09-0.15-0.2-0.16-0.32c-0.01-0.12,0.04-0.24,0.13-0.34c0.1-0.11,0.22-0.17,0.34-0.18
				C11.93,2.34,12.04,2.39,12.15,2.49z M11.51,1.99l-0.52,0.76l-0.17-0.12l0.52-0.76L11.51,1.99z M10.46,1.37l0.62,0.33L11,1.83
				L10.57,1.6l-0.1,0.19L10.84,2l-0.07,0.14l-0.37-0.2l-0.18,0.35l-0.18-0.1L10.46,1.37z M9.59,1.04l0.2,0.07l0.1,1.01L9.68,2.05
				L9.67,1.82L9.28,1.69L9.13,1.86L8.92,1.8L9.59,1.04z M8.1,0.75l0.43,0.06c0.11,0.01,0.18,0.03,0.23,0.06
				c0.05,0.02,0.08,0.06,0.11,0.1c0.02,0.05,0.03,0.1,0.02,0.15C8.88,1.19,8.85,1.24,8.8,1.28C8.75,1.32,8.68,1.34,8.59,1.34
				c0.04,0.03,0.07,0.06,0.1,0.09c0.02,0.03,0.06,0.09,0.1,0.16l0.1,0.19L8.64,1.75L8.52,1.54C8.47,1.46,8.44,1.41,8.43,1.39
				C8.41,1.37,8.39,1.35,8.37,1.34c-0.02-0.01-0.05-0.02-0.1-0.02L8.23,1.31L8.18,1.69l-0.2-0.03L8.1,0.75z M7.88,1.92
				c0.33,0.02,1.01,0.19,1.01,0.19L8.61,2.11L8.59,2.24v0.02c0,0,0.1,0.2,0.06,0.34l0.34,0.36c0,0,0.05,0.1-0.06,0.1
				c0,0-0.08-0.06-0.18-0.05c-0.1,0.01-0.01-0.02-0.01-0.02L8.62,2.87L8.52,2.84L8.28,2.51H8l-0.37-0.2c0,0-0.12,0.05-0.25-0.03
				C7.25,2.2,7.12,2.18,7.12,2.18L6.39,2.05c0,0,0.6-0.14,1.37-0.13C7.8,1.92,7.84,1.92,7.88,1.92z M6.83,0.98
				c0.04-0.08,0.1-0.14,0.19-0.18c0.06-0.03,0.14-0.05,0.24-0.06c0.13-0.01,0.23,0.01,0.3,0.06C7.63,0.84,7.68,0.9,7.7,0.98
				L7.5,1.03c-0.02-0.04-0.05-0.08-0.09-0.1C7.37,0.9,7.32,0.89,7.26,0.89c-0.09,0-0.16,0.03-0.21,0.09C7,1.04,6.98,1.12,6.99,1.22
				c0.01,0.11,0.04,0.19,0.09,0.24c0.06,0.05,0.13,0.08,0.22,0.07c0.04,0,0.09-0.01,0.13-0.03C7.47,1.49,7.5,1.46,7.53,1.44
				L7.53,1.32L7.29,1.34L7.28,1.18l0.44-0.02l0.02,0.37C7.7,1.57,7.64,1.6,7.56,1.64C7.48,1.67,7.4,1.69,7.32,1.69
				C7.21,1.7,7.12,1.68,7.03,1.65C6.95,1.61,6.89,1.55,6.85,1.48C6.8,1.41,6.78,1.33,6.78,1.24C6.77,1.14,6.79,1.05,6.83,0.98z
				 M5.56,1.28c0.01-0.05,0.03-0.1,0.06-0.15c0.03-0.05,0.07-0.08,0.11-0.11c0.06-0.04,0.12-0.07,0.2-0.09
				C6.08,0.9,6.21,0.91,6.31,0.97c0.11,0.06,0.18,0.16,0.22,0.31c0.04,0.15,0.02,0.27-0.04,0.37c-0.07,0.1-0.17,0.17-0.32,0.21
				C6.02,1.9,5.9,1.89,5.79,1.83c-0.11-0.06-0.18-0.16-0.21-0.3C5.55,1.43,5.55,1.35,5.56,1.28z M5.13,1.2l0.07,0.14L4.7,1.57
				l0.09,0.19l0.46-0.21l0.07,0.14L4.85,1.9l0.11,0.23l0.51-0.24l0.07,0.14l-0.7,0.32L4.44,1.51L5.13,1.2z M3.55,2.12
				C3.59,2.06,3.64,2,3.72,1.94c0.1-0.07,0.2-0.11,0.28-0.11c0.09,0,0.16,0.03,0.23,0.08L4.09,2.06C4.05,2.03,4.01,2.02,3.96,2.02
				c-0.05,0-0.1,0.02-0.14,0.05C3.74,2.13,3.7,2.19,3.68,2.26C3.67,2.33,3.69,2.41,3.75,2.5c0.06,0.09,0.13,0.14,0.21,0.16
				c0.08,0.01,0.15,0,0.22-0.05C4.22,2.57,4.25,2.54,4.27,2.5C4.3,2.47,4.32,2.43,4.33,2.39L4.27,2.3L4.07,2.43L3.98,2.31l0.36-0.25
				l0.21,0.3c-0.01,0.06-0.04,0.12-0.1,0.19C4.41,2.61,4.35,2.67,4.28,2.72C4.2,2.78,4.11,2.82,4.02,2.83
				c-0.09,0.01-0.17,0-0.25-0.04C3.7,2.75,3.63,2.7,3.58,2.62C3.53,2.54,3.5,2.46,3.49,2.38C3.48,2.29,3.5,2.2,3.55,2.12z
				 M1.94,3.83c0.02-0.07,0.05-0.13,0.09-0.2c0.09-0.12,0.19-0.2,0.31-0.22C2.47,3.38,2.59,3.41,2.72,3.5
				c0.12,0.09,0.19,0.19,0.21,0.31c0.02,0.12-0.02,0.24-0.1,0.37C2.74,4.3,2.64,4.37,2.52,4.4c-0.12,0.03-0.24,0-0.36-0.09
				C2.08,4.26,2.02,4.2,1.99,4.14c-0.03-0.05-0.04-0.1-0.05-0.15C1.93,3.93,1.93,3.88,1.94,3.83z M1.65,4.28l0.14,0.07L1.66,4.62
				l0.7,0.33L2.27,5.13L1.57,4.8L1.45,5.07L1.31,5.01L1.65,4.28z M1.03,5.91l0.48,0.13c0.08,0.02,0.13,0.03,0.15,0.03
				c0.04,0,0.07-0.01,0.1-0.04C1.8,6.01,1.82,5.97,1.84,5.92c0.02-0.06,0.02-0.1,0-0.13S1.81,5.73,1.78,5.71
				C1.75,5.7,1.7,5.68,1.63,5.66L1.13,5.53l0.05-0.2l0.47,0.13c0.11,0.03,0.18,0.06,0.22,0.08c0.04,0.02,0.07,0.05,0.1,0.09
				C2,5.66,2.01,5.71,2.02,5.76c0,0.05,0,0.12-0.02,0.2C1.97,6.05,1.94,6.12,1.9,6.16C1.87,6.2,1.84,6.23,1.8,6.25
				C1.76,6.27,1.72,6.28,1.68,6.28c-0.05,0-0.13-0.02-0.23-0.04L0.97,6.11L1.03,5.91z M0.92,6.44l0.16,0.02l-0.03,0.3l0.77,0.07
				l-0.02,0.2L1.02,6.95l-0.03,0.3L0.84,7.24L0.92,6.44z M0.84,7.52L1.77,7.5l0,0.21L0.85,7.73L0.84,7.52z M0.85,8.01l0.15-0.02
				l0.04,0.3l0.76-0.1l0.03,0.2l-0.76,0.1l0.04,0.3L0.96,8.81L0.85,8.01z M1.22,9.68C1.18,9.64,1.15,9.58,1.13,9.5
				c-0.04-0.12-0.04-0.22-0.01-0.3c0.03-0.08,0.08-0.13,0.17-0.16l0.07,0.19C1.31,9.27,1.28,9.29,1.27,9.33
				C1.26,9.36,1.26,9.4,1.28,9.46c0.02,0.06,0.04,0.1,0.07,0.12C1.37,9.6,1.39,9.6,1.42,9.6c0.02-0.01,0.04-0.02,0.04-0.05
				c0.01-0.03,0.01-0.1,0-0.2c-0.01-0.1-0.01-0.18,0-0.23c0.01-0.05,0.03-0.1,0.06-0.13c0.03-0.04,0.07-0.06,0.13-0.08
				c0.05-0.02,0.1-0.02,0.16,0c0.05,0.02,0.1,0.05,0.14,0.1c0.04,0.05,0.07,0.12,0.1,0.2c0.04,0.12,0.04,0.23,0.01,0.31
				C2.02,9.6,1.96,9.66,1.86,9.71L1.79,9.52c0.06-0.03,0.09-0.07,0.11-0.11c0.02-0.04,0.02-0.09,0-0.15
				C1.87,9.19,1.84,9.15,1.81,9.12C1.78,9.1,1.74,9.09,1.71,9.1C1.69,9.11,1.67,9.12,1.66,9.14C1.65,9.16,1.65,9.18,1.65,9.22
				c0,0.03,0,0.08,0.01,0.17c0.01,0.11,0,0.19-0.02,0.25C1.61,9.71,1.56,9.76,1.49,9.78c-0.04,0.01-0.09,0.01-0.14,0
				C1.3,9.76,1.26,9.73,1.22,9.68z M1.68,10.76l0.36-0.65l-0.55,0.28l-0.09-0.17L2.23,9.8l0.09,0.18l-0.35,0.64l0.54-0.28l0.09,0.17
				l-0.82,0.42L1.68,10.76z M1.98,11.25l0.76-0.53l0.12,0.17L2.1,11.42L1.98,11.25z M2.98,11.89c0,0.01-0.07,0.29-0.07,0.29
				s-0.14-0.27-0.14-0.28c-0.01,0-0.29,0.02-0.29,0.02s0.2-0.23,0.21-0.24c0-0.01-0.07-0.27-0.07-0.27L2.59,11.4
				c0,0,0.23,0.15,0.24,0.16c0.01,0,0.26-0.16,0.26-0.16s-0.07,0.27-0.08,0.28c0.01,0.01,0.25,0.16,0.25,0.16S2.98,11.89,2.98,11.89
				z M2.55,9.75l0.12,0c0.24,0.53,0.6,1.14,1.18,1.74H3.8C3.27,11,2.85,10.41,2.55,9.75z M4.58,13.11l-0.4-0.3l-0.15,0.2l0.45,0.34
				l-0.09,0.12l-0.62-0.46l0.56-0.74l0.6,0.45l-0.09,0.12l-0.44-0.33l-0.12,0.16l0.4,0.3L4.58,13.11z M5.76,13.43l-0.2-0.05
				c0.01-0.05,0-0.09-0.02-0.14c-0.02-0.04-0.06-0.07-0.11-0.1c-0.07-0.03-0.13-0.04-0.2-0.01c-0.06,0.02-0.12,0.09-0.17,0.19
				C5.02,13.43,5,13.51,5.02,13.58c0.02,0.06,0.06,0.11,0.13,0.14c0.05,0.02,0.1,0.03,0.15,0.02c0.05-0.01,0.1-0.04,0.14-0.1
				l0.16,0.14c-0.07,0.08-0.15,0.12-0.23,0.14c-0.09,0.01-0.18,0-0.28-0.05c-0.12-0.06-0.2-0.14-0.25-0.26
				c-0.04-0.11-0.03-0.24,0.03-0.37c0.07-0.14,0.16-0.23,0.27-0.27c0.12-0.04,0.24-0.03,0.37,0.03c0.11,0.05,0.19,0.13,0.23,0.22
				C5.76,13.28,5.77,13.35,5.76,13.43z M5.69,12.66c0-0.01-0.01-0.02-0.01-0.03c0,0,0.05-0.12,0.05-0.13
				c0.01-0.01,0.14-0.07,0.17-0.02c0.01,0,0.14,0.05,0.2-0.06c0,0,0-0.03,0.03-0.05c0.03-0.02,0.07-0.02,0.13-0.01
				c0,0,0.17,0.09,0.17,0.09c0,0,0.12,0.04,0.12,0.04c0.07,0,0.18-0.01,0.19-0.04c0,0,0,0,0,0c0-0.01-0.01-0.03-0.04-0.04l0,0
				l0-0.08l0.05-0.1l0.01,0.01c0,0,0.07,0.06,0.08,0.06c0,0,0.02,0.11,0.43,0.12c0,0,0.17,0.04,0.23-0.01
				c0.01-0.01,0.02-0.02,0.02-0.04c0,0-0.01-0.04,0.01-0.07c0.02-0.02,0.04-0.04,0.09-0.04c0,0,0.17-0.04,0.17-0.04
				c0.01-0.01,0.1-0.07,0.12-0.07c0.01,0,0.17-0.07,0.21-0.01l0.05,0.01l0,0.01c0,0-0.05,0.01-0.05,0.01c0,0-0.06,0.04-0.06,0.04
				c0,0-0.07,0.07-0.11,0.05c0,0-0.11,0.03-0.11,0.03c0,0-0.08,0.01-0.07,0.07l0,0l0,0c0,0-0.05,0.04-0.08,0.13
				c-0.01,0.02-0.04,0.07-0.04,0.07c0,0-0.04,0.08-0.14,0.05c0,0-0.32,0.02-0.32,0.02c0,0-0.05,0.06-0.07,0.09H5.87
				C5.81,12.7,5.75,12.68,5.69,12.66z M6.73,13.91c-0.03,0.11-0.05,0.18-0.07,0.23c-0.02,0.04-0.05,0.08-0.09,0.1
				c-0.04,0.02-0.08,0.04-0.13,0.05c-0.05,0.01-0.12,0-0.2-0.02c-0.09-0.02-0.16-0.05-0.21-0.08c-0.04-0.03-0.08-0.07-0.1-0.1
				c-0.02-0.04-0.03-0.08-0.03-0.11c0-0.05,0.01-0.13,0.03-0.23l0.11-0.48l0.2,0.05l-0.11,0.49c-0.02,0.08-0.03,0.13-0.03,0.15
				c0,0.04,0.01,0.07,0.04,0.1c0.03,0.03,0.07,0.05,0.12,0.06c0.06,0.01,0.1,0.01,0.14,0c0.03-0.01,0.06-0.04,0.07-0.07
				c0.01-0.03,0.03-0.08,0.04-0.15l0.11-0.5l0.2,0.05L6.73,13.91z M7.75,14.4l-0.08-0.21l-0.41-0.01l-0.09,0.21l-0.22,0l0.41-0.92
				l0.22,0l0.4,0.93L7.75,14.4z M9.05,13.96c-0.01,0.07-0.04,0.13-0.07,0.18c-0.03,0.04-0.07,0.07-0.13,0.1
				c-0.04,0.02-0.1,0.04-0.17,0.05l-0.38,0.07l-0.18-0.91l0.37-0.07c0.08-0.02,0.15-0.02,0.19-0.02c0.06,0,0.12,0.02,0.17,0.05
				c0.05,0.03,0.09,0.07,0.12,0.13C9,13.6,9.02,13.67,9.04,13.76C9.05,13.83,9.06,13.9,9.05,13.96z M8.63,12.72
				c0.54-0.32,0.98-0.71,1.34-1.12h0.94c-0.44,0.42-1,0.8-1.71,1.12H8.63z M10.2,13.66c-0.05,0.11-0.14,0.2-0.28,0.26
				c-0.14,0.06-0.26,0.07-0.38,0.03c-0.12-0.04-0.2-0.13-0.26-0.26c-0.04-0.09-0.06-0.16-0.05-0.24c0-0.05,0.01-0.1,0.03-0.15
				c0.02-0.05,0.05-0.09,0.09-0.13c0.05-0.05,0.11-0.09,0.19-0.12c0.14-0.06,0.26-0.07,0.38-0.03c0.12,0.04,0.21,0.13,0.27,0.27
				C10.24,13.42,10.25,13.54,10.2,13.66z M11.22,13.11l-0.24-0.07c-0.09-0.03-0.14-0.04-0.17-0.05c-0.03,0-0.05,0-0.07,0.01
				c-0.02,0.01-0.05,0.02-0.09,0.05l-0.03,0.02l0.23,0.31l-0.17,0.12l-0.55-0.74l0.35-0.26c0.09-0.06,0.16-0.1,0.2-0.12
				c0.05-0.02,0.1-0.02,0.15,0c0.05,0.02,0.09,0.05,0.12,0.09c0.04,0.06,0.06,0.12,0.05,0.18c-0.01,0.06-0.05,0.13-0.11,0.19
				c0.05-0.01,0.09-0.01,0.13,0c0.04,0.01,0.1,0.02,0.18,0.05l0.21,0.07L11.22,13.11z M11.39,11.49h-0.2
				c0.53-0.55,0.87-1.13,1.1-1.65l0.3,0C12.3,10.47,11.89,11.02,11.39,11.49z M12.49,11.89c0,0.01-0.07,0.29-0.07,0.29
				s-0.14-0.27-0.14-0.28c-0.01,0-0.29,0.02-0.29,0.02s0.2-0.23,0.21-0.24c0-0.01-0.07-0.27-0.07-0.27l-0.01-0.02
				c0,0,0.23,0.15,0.24,0.16c0.01,0,0.26-0.16,0.26-0.16s-0.07,0.27-0.08,0.28c0.01,0.01,0.25,0.16,0.25,0.16
				S12.5,11.89,12.49,11.89z M13.39,10.97c-0.06,0.09-0.1,0.16-0.14,0.19c-0.04,0.03-0.09,0.05-0.14,0.06
				c-0.05,0-0.1-0.01-0.15-0.04c-0.06-0.04-0.1-0.08-0.11-0.15c-0.02-0.06-0.01-0.13,0.03-0.22c-0.04,0.03-0.08,0.04-0.12,0.05
				c-0.04,0.01-0.1,0.02-0.19,0.02l-0.22,0.01l0.13-0.21l0.25-0.02c0.09-0.01,0.15-0.02,0.17-0.02c0.03-0.01,0.05-0.02,0.06-0.03
				c0.02-0.02,0.04-0.04,0.06-0.08l0.02-0.04l-0.33-0.2l0.11-0.18l0.79,0.47L13.39,10.97z M13.9,9.93l-1.01,0.06l0.08-0.21
				l0.23-0.01l0.14-0.38l-0.17-0.15l0.08-0.2l0.73,0.69L13.9,9.93z M14.13,9.25l-0.15-0.03l0.06-0.29l-0.75-0.15l0.04-0.2l0.75,0.15
				l0.06-0.29l0.15,0.03L14.13,9.25z M13.39,8.1l0.02-0.2l0.92,0.08l-0.02,0.2L13.39,8.1z M12.35,3.89c0.05,0.07,0.11,0.1,0.19,0.11
				c0.07,0.01,0.15-0.02,0.24-0.08c0.08-0.06,0.13-0.13,0.14-0.21c0.01-0.07-0.01-0.14-0.06-0.21c-0.05-0.07-0.11-0.11-0.19-0.12
				c-0.07-0.01-0.15,0.02-0.24,0.08c-0.08,0.06-0.13,0.13-0.14,0.21C12.28,3.75,12.3,3.82,12.35,3.89z M9.82,13.18
				c-0.07-0.03-0.14-0.02-0.22,0.01c-0.08,0.03-0.13,0.09-0.16,0.16c-0.03,0.07-0.02,0.15,0.03,0.25c0.04,0.1,0.1,0.16,0.17,0.19
				c0.07,0.03,0.14,0.03,0.22-0.01c0.07-0.03,0.13-0.09,0.15-0.16c0.03-0.07,0.02-0.15-0.03-0.25C9.94,13.27,9.89,13.2,9.82,13.18z
				 M10.73,12.57c-0.03,0-0.05,0-0.08,0.02c-0.01,0.01-0.06,0.04-0.12,0.09l-0.13,0.09l0.14,0.19l0.12-0.09
				c0.08-0.06,0.13-0.1,0.14-0.12c0.02-0.02,0.02-0.04,0.02-0.07c0-0.02-0.01-0.05-0.02-0.07C10.78,12.59,10.75,12.57,10.73,12.57z
				 M9.62,1.28L9.38,1.56l0.27,0.09L9.62,1.28z M8.58,1.2c0.03,0,0.05-0.01,0.06-0.03C8.66,1.15,8.67,1.13,8.68,1.1
				c0-0.03,0-0.06-0.02-0.08C8.64,1,8.62,0.99,8.59,0.98c-0.02,0-0.07-0.01-0.15-0.02L8.28,0.93L8.25,1.16L8.4,1.18
				C8.5,1.2,8.56,1.2,8.58,1.2z M8.78,13.63c-0.02-0.04-0.05-0.06-0.07-0.08c-0.03-0.02-0.06-0.02-0.1-0.02
				c-0.03,0-0.08,0.01-0.17,0.02l-0.09,0.02l0.12,0.6l0.15-0.03c0.06-0.01,0.1-0.02,0.12-0.03c0.03-0.01,0.06-0.03,0.07-0.05
				c0.02-0.02,0.03-0.05,0.04-0.1c0.01-0.04,0-0.1-0.01-0.17C8.82,13.72,8.8,13.67,8.78,13.63z M13.01,10.93
				c0.01,0.02,0.03,0.04,0.05,0.05c0.03,0.02,0.05,0.02,0.08,0.02c0.03-0.01,0.05-0.02,0.07-0.05c0.01-0.01,0.04-0.06,0.08-0.13
				l0.08-0.14l-0.2-0.12l-0.08,0.13c-0.05,0.08-0.08,0.14-0.08,0.16C13,10.89,13,10.91,13.01,10.93z"/>
		</g>
	</g>
</g>
</svg>
